<svg title="IFTTT Pro Banner Background" fill="none" height="1597" viewBox="0 0 1439 1597" width="1439" xmlns="http://www.w3.org/2000/svg" xmlns:xlink="http://www.w3.org/1999/xlink"><clipPath id="a"><path d="m0 0h1439v1597h-1439z"/></clipPath><clipPath id="b"><path d="m0 0h1438.64v564.034h-1438.64z" transform="matrix(-1 0 0 1 1438.63 1047.92)"/></clipPath><mask id="c" fill="#fff"><path clip-rule="evenodd" d="m1040.66 727.623h17.15l.11-17.148h-17.15zm22.68 5.57.19-28.289h-28.29l-.19 28.289z" fill="#fff" fill-rule="evenodd"/></mask><mask id="d" height="43" maskUnits="userSpaceOnUse" width="47" x="1261" y="627"><path clip-rule="evenodd" d="m1261.37 627.107h45.97v42.435h-45.97z" fill="#fff" fill-rule="evenodd"/></mask><mask id="e" height="43" maskUnits="userSpaceOnUse" width="47" x="131" y="1160"><path clip-rule="evenodd" d="m177.276 1160.12h-45.971v42.43h45.971z" fill="#fff" fill-rule="evenodd"/></mask><mask id="f" fill="#fff"><path clip-rule="evenodd" d="m397.989 217.189h-17.148l-.116-17.148h17.149zm-22.681 5.57-.191-28.289h28.29l.19 28.289z" fill="#fff" fill-rule="evenodd"/></mask><mask id="g" height="44" maskUnits="userSpaceOnUse" width="47" x="131" y="116"><path clip-rule="evenodd" d="m177.279 116.673h-45.971v42.435h45.971z" fill="#fff" fill-rule="evenodd"/></mask><g clip-path="url(#a)"><path d="m0 0h1439v1597h-1439z" fill="#000"/><path clip-rule="evenodd" d="m240.15 890.556v-152.057h5.57v152.057z" fill="#09f" fill-rule="evenodd"/><path clip-rule="evenodd" d="m773.37 931.974h275.83v5.57h-275.83z" fill="#2cbe60" fill-rule="evenodd"/><path clip-rule="evenodd" d="m243.686 575.832v-31.826h5.571v31.826z" fill="#ee4332" fill-rule="evenodd"/><path clip-rule="evenodd" d="m584.932 703.136v-49.507h5.571v49.507z" fill="#2cbe60" fill-rule="evenodd"/><path clip-rule="evenodd" d="m1049.2 726.873c1.53 0 2.78 1.247 2.78 2.785v.071c0 1.538-1.25 2.785-2.78 2.785-1.54 0-2.79-1.247-2.79-2.785v-.071c0-1.538 1.25-2.785 2.79-2.785zm0 17.021c1.53 0 2.78 1.247 2.78 2.785v.141c0 1.539-1.25 2.786-2.78 2.786-1.54 0-2.79-1.247-2.79-2.786v-.141c0-1.538 1.25-2.785 2.79-2.785zm0 17.091c1.53 0 2.78 1.248 2.78 2.786v.141c0 1.538-1.25 2.785-2.78 2.785-1.54 0-2.79-1.247-2.79-2.785v-.141c0-1.538 1.25-2.786 2.79-2.786zm0 17.092c1.53 0 2.78 1.247 2.78 2.786v.141c0 1.538-1.25 2.785-2.78 2.785-1.54 0-2.79-1.247-2.79-2.785v-.141c0-1.539 1.25-2.786 2.79-2.786zm0 17.092c1.53 0 2.78 1.247 2.78 2.785v.142c0 1.538-1.25 2.785-2.78 2.785-1.54 0-2.79-1.247-2.79-2.785v-.142c0-1.538 1.25-2.785 2.79-2.785zm0 17.092c1.53 0 2.78 1.247 2.78 2.785v.141c0 1.539-1.25 2.786-2.78 2.786-1.54 0-2.79-1.247-2.79-2.786v-.141c0-1.538 1.25-2.785 2.79-2.785zm0 17.092c1.53 0 2.78 1.247 2.78 2.785v.141c0 1.539-1.25 2.786-2.78 2.786-1.54 0-2.79-1.247-2.79-2.786v-.141c0-1.538 1.25-2.785 2.79-2.785zm0 17.091c1.53 0 2.78 1.247 2.78 2.786v.141c0 1.538-1.25 2.785-2.78 2.785-1.54 0-2.79-1.247-2.79-2.785v-.141c0-1.539 1.25-2.786 2.79-2.786zm0 17.092c1.53 0 2.78 1.247 2.78 2.786v.141c0 1.538-1.25 2.785-2.78 2.785-1.54 0-2.79-1.247-2.79-2.785v-.141c0-1.539 1.25-2.786 2.79-2.786zm0 17.092c1.53 0 2.78 1.247 2.78 2.785v.142c0 1.538-1.25 2.785-2.78 2.785-1.54 0-2.79-1.247-2.79-2.785v-.142c0-1.538 1.25-2.785 2.79-2.785zm0 17.092c1.53 0 2.78 1.247 2.78 2.785v.141c0 1.539-1.25 2.786-2.78 2.786-1.54 0-2.79-1.247-2.79-2.786v-.141c0-1.538 1.25-2.785 2.79-2.785zm0 17.091c1.53 0 2.78 1.248 2.78 2.786v.141c0 1.538-1.25 2.785-2.78 2.785-1.54 0-2.79-1.247-2.79-2.785v-.141c0-1.538 1.25-2.786 2.79-2.786zm0 17.092c1.53 0 2.78 1.247 2.78 2.786v.07c0 1.539-1.25 2.786-2.78 2.786-1.54 0-2.79-1.247-2.79-2.786v-.07c0-1.539 1.25-2.786 2.79-2.786z" fill="#5a5a5a" fill-rule="evenodd"/><path clip-rule="evenodd" d="m1340.18 559.919c0 1.538-1.24 2.785-2.78 2.785h-.06c-1.54 0-2.79-1.247-2.79-2.785 0-1.539 1.25-2.786 2.79-2.786h.06c1.54 0 2.78 1.247 2.78 2.786zm-15.31 0c0 1.538-1.25 2.785-2.79 2.785h-.12c-1.54 0-2.79-1.247-2.79-2.785 0-1.539 1.25-2.786 2.79-2.786h.12c1.54 0 2.79 1.247 2.79 2.786zm-15.38 0c0 1.538-1.25 2.785-2.79 2.785h-.06-.07c-1.53.005-2.78-1.238-2.79-2.776 0-1.539 1.24-2.79 2.78-2.795h.08.06c1.54 0 2.79 1.247 2.79 2.786zm-16.58 4.512c1.08 1.091 1.08 2.855-.01 3.939l-.09.09c-1.09 1.091-2.85 1.096-3.94.012s-1.1-2.848-.01-3.939c.03-.038.07-.077.11-.115 1.09-1.084 2.86-1.078 3.94.013zm-8.55 14.912c1.54.005 2.79 1.256 2.78 2.795v.063.064c0 1.538-1.25 2.785-2.78 2.785-1.54 0-2.79-1.247-2.79-2.785v-.064-.081c.01-1.538 1.26-2.781 2.79-2.777zm0 15.39c1.53 0 2.78 1.247 2.78 2.785v.127c0 1.539-1.25 2.786-2.78 2.786-1.54 0-2.79-1.247-2.79-2.786v-.127c0-1.538 1.25-2.785 2.79-2.785zm0 15.38c1.53 0 2.78 1.247 2.78 2.786v.063c0 1.538-1.25 2.785-2.78 2.785-1.54 0-2.79-1.247-2.79-2.785v-.063c0-1.539 1.25-2.786 2.79-2.786z" fill="#666" fill-rule="evenodd"/><path clip-rule="evenodd" d="m194.179 890.556v-152.057h5.571v152.057z" fill="#3b579d" fill-rule="evenodd"/><path clip-rule="evenodd" d="m771.602 864.786h139.681v5.57h-139.681z" fill="#3b579d" fill-rule="evenodd"/><path clip-rule="evenodd" d="m911.283 999.162h139.677v5.568h-139.677z" fill="#09f" fill-rule="evenodd"/><path clip-rule="evenodd" d="m145.689 557.133h97.247v5.571h-97.247z" fill="#ee4332" fill-rule="evenodd"/><path clip-rule="evenodd" d="m587.718 557.133h189.189v5.571h-189.189z" fill="#395497" fill-rule="evenodd"/><path d="m988.466 718.992c-1.04-1.04-1.04-2.733 0-3.772l5.152-5.151c.968-.967 1.04-2.538.097-3.53-.967-.991-2.564-1.015-3.531-.024l-5.201 5.199c-1.04 1.039-2.733 1.039-3.773 0l-2.443-2.443c-1.04-1.039-1.04-2.732 0-3.771l5.152-5.151c.967-.967 1.04-2.538.097-3.53-.968-.991-2.564-1.015-3.532-.024l-5.224 5.199c-1.041 1.063-2.734 1.063-3.774 0-1.379-1.354-3.048-1.306-4.136-.242l-2.757 2.756c-4.596 4.594-5.588 11.413-3.024 16.974.653 1.427.387 3.119-.726 4.231l-8.054 8.052c-1.065 1.064-1.137 2.805-.097 3.893 1.064 1.112 2.83 1.112 3.894.048l8.103-8.1c1.113-1.112 2.806-1.402 4.233-.725 5.564 2.587 12.409 1.572 17.005-3.023l2.757-2.756c1.088-1.088 1.113-2.781-.218-4.11z" fill="#ff7100"/><path d="m320.876 566.922c-2.923-2.11-7.386-1.482-9.694.243-.879.812-.615 1.846.308 2.699l3.231 2.982c.814.751 2.155.751 2.968 0l3.407-3.145c.857-.771.747-2.09-.22-2.779z" fill="#ffbe00"/><path d="m325.844 563.513c.747.69 2.066.609 2.792-.061.747-.69.857-1.927.109-2.617-6.924-6.391-18.156-6.391-25.08 0-.77.73-.88 2.008-.088 2.739.813.751 2.198.69 2.989-.061 5.342-4.91 13.958-4.91 19.278 0z" fill="#ffbe00"/><path d="m335.252 557.345c.725-.67.615-2.029-.088-2.719-10.551-9.739-27.499-9.577-38.05.142-.769.731-.879 2.009-.11 2.719.792.73 2.176.649 2.968-.081 8.968-8.278 23.52-8.278 32.488 0 .748.69 2.044.629 2.792-.061z" fill="#ffbe00"/><path d="m342.022 551.096c.726-.67.813-1.928.088-2.597-14.31-13.209-37.5-13.209-51.788 0-.769.73-.879 2.008-.088 2.739.813.75 2.198.69 2.99-.061 12.683-11.707 33.279-11.727 45.963 0 .747.69 2.088.609 2.835-.081z" fill="#ffbe00"/><path clip-rule="evenodd" d="m681.863 629.619c-2.218-3.162-6.903-3.162-9.121 0l-16.081 22.928c-4.436 6.325-13.807 6.325-18.243 0l-5.545-7.906c-1.043-1.487-2.745-2.372-4.561-2.372h-10.536v-5.571h10.536c3.632 0 7.036 1.771 9.122 4.744l5.545 7.906c2.218 3.162 6.903 3.162 9.121 0l16.081-22.928c4.436-6.324 13.807-6.324 18.243 0l16.081 22.928c2.218 3.162 6.904 3.162 9.122 0l16.081-22.928c4.436-6.324 13.806-6.324 18.243 0l16.081 22.928c2.218 3.162 6.903 3.162 9.121 0l5.545-7.906c2.086-2.973 5.49-4.744 9.122-4.744h10.536v5.571h-10.536c-1.816 0-3.518.885-4.561 2.372l-5.545 7.906c-4.436 6.325-13.807 6.325-18.243 0l-16.081-22.928c-2.218-3.162-6.903-3.162-9.121 0l-16.082 22.928c-4.436 6.325-13.806 6.325-18.242 0z" fill="#666" fill-rule="evenodd"/><path clip-rule="evenodd" d="m975.137 640.167 76.033 76.028-3.94 3.94-76.032-76.029z" fill="#09f" fill-rule="evenodd"/><path d="m1197.72 593.513c-16.6 0-30.06-13.458-30.06-30.058 0-16.601 13.46-30.058 30.06-30.058s30.06 13.457 30.06 30.058c0 16.6-13.46 30.058-30.06 30.058z" fill="#242424"/><path clip-rule="evenodd" d="m1173.23 563.455c0 13.524 10.96 24.487 24.49 24.487 13.52 0 24.48-10.963 24.48-24.487s-10.96-24.487-24.48-24.487c-13.53 0-24.49 10.963-24.49 24.487zm-5.57 0c0 16.6 13.46 30.058 30.06 30.058s30.06-13.458 30.06-30.058c0-16.601-13.46-30.058-30.06-30.058s-30.06 13.457-30.06 30.058z" fill="#666" fill-rule="evenodd"/><path clip-rule="evenodd" d="m1200.5 589.977v127.304h-5.57v-127.304z" fill="#666" fill-rule="evenodd"/><path d="m1125.22 715.513v173.276l30.01-30.27h111.44v-143.006z" fill="#242424"/><path clip-rule="evenodd" d="m1152.91 852.948-22.11 22.308v-154.172h130.3v131.864zm113.76-137.435h-141.45v173.276l30.01-30.27h111.44z" fill="#666" fill-rule="evenodd"/><path d="m993.867 558.668-19.45-19.449c-.331-.332-.781-.518-1.25-.518s-.918.186-1.25.518l-19.449 19.449c-.248.248-.416.563-.484.906s-.033.698.101 1.021c.133.323.36.599.651.794.29.194.632.298.982.298h2.21c.117 0 .23.046.312.129.083.083.13.196.13.313v17.239c0 .469.186.919.518 1.25.331.332.781.518 1.25.518h10.167c.117 0 .23-.046.313-.129.082-.083.129-.195.129-.313v-8.398c0-1.173.466-2.297 1.295-3.126s1.953-1.295 3.125-1.295c1.173 0 2.297.466 3.126 1.295s1.295 1.953 1.295 3.126v8.398c0 .118.046.23.129.313s.196.129.313.129h10.167c.469 0 .918-.186 1.25-.518.331-.331.518-.781.518-1.25v-17.239c0-.117.046-.23.129-.313s.196-.129.313-.129h2.21c.35 0 .691-.104.982-.298.291-.195.517-.471.651-.794s.169-.678.101-1.021-.237-.658-.484-.906zm-20.7 1.251c-.874 0-1.729-.26-2.455-.745-.727-.486-1.294-1.176-1.629-1.984-.334-.808-.422-1.697-.251-2.554.17-.858.591-1.645 1.21-2.263.618-.619 1.406-1.04 2.263-1.21.857-.171 1.746-.083 2.554.251.808.335 1.498.901 1.984 1.628.485.727.745 1.582.745 2.456 0 .581-.115 1.155-.337 1.692-.222.536-.548 1.023-.958 1.434-.41.41-.898.736-1.434.958s-1.111.337-1.692.337z" fill="#ffbe00"/><path d="m1211.87 562.149c1.21.449 1.21 2.164 0 2.612l-8.78 3.248c-.38.141-.68.441-.82.822l-3.25 8.776c-.44 1.212-2.16 1.212-2.61 0l-3.25-8.776c-.14-.381-.44-.681-.82-.822l-8.77-3.248c-1.22-.448-1.22-2.163 0-2.612l8.77-3.247c.38-.141.68-.442.82-.823l3.25-8.775c.45-1.213 2.17-1.213 2.61 0l3.25 8.775c.14.381.44.682.82.823z" fill="#3b579d"/><path d="m973.167 655.397c-8.788 0-15.913-7.124-15.913-15.913 0-8.788 7.125-15.913 15.913-15.913 8.789 0 15.913 7.125 15.913 15.913 0 8.789-7.124 15.913-15.913 15.913z" fill="#09f"/><path clip-rule="evenodd" d="m962.825 639.484c0 5.712 4.63 10.343 10.342 10.343s10.343-4.631 10.343-10.343-4.631-10.342-10.343-10.342-10.342 4.63-10.342 10.342zm-5.571 0c0 8.789 7.125 15.913 15.913 15.913 8.789 0 15.913-7.124 15.913-15.913 0-8.788-7.124-15.913-15.913-15.913-8.788 0-15.913 7.125-15.913 15.913z" fill="#09f" fill-rule="evenodd"/><path d="m1424.04 657.165c0 13.671-11.09 24.753-24.76 24.753s-24.75-11.082-24.75-24.753 11.08-24.754 24.75-24.754 24.76 11.083 24.76 24.754z" fill="#09f"/><path d="m1371.8 769.939h32.03v89.132h-32.03z" fill="#ee4332"/><path d="m1331.41 810.327h32.03v48.744h-32.03z" fill="#666"/><path d="m1291.03 793.615h32.03v65.456h-32.03z" fill="#09f"/><path d="m1348.01 749.107h-56.58l56.58-56.58z" fill="#3b579d"/><path d="m1063.34 733.193h-28.29l.19-28.289h28.29z" fill="#09f"/><path clip-rule="evenodd" d="m1040.66 727.623h17.15l.11-17.148h-17.15zm22.68 5.57.19-28.289h-28.29l-.19 28.289z" fill="#09f" fill-rule="evenodd"/><path d="m1057.81 727.623-.04 5.57h5.57l.04-5.57zm-17.15 0h-5.57l-.04 5.57h5.57zm17.26-17.148h5.57l.04-5.571h-5.57zm-17.15 0 .04-5.571h-5.57l-.04 5.571zm22.57 22.718-.04 5.571h5.57l.04-5.571zm.19-28.289h5.57l.04-5.57h-5.57zm-28.29 0 .04-5.57h-5.57l-.04 5.57zm-.19 28.289h-5.57l-.04 5.571h5.57zm22.79-11.141h-17.14l-.08 11.141h17.15zm-5.49-11.577-.11 17.148h11.14l.11-17.148zm-11.61 5.57h17.15l.07-11.141h-17.15zm5.49 11.578.12-17.148h-11.15l-.11 17.148zm17.15 0h-28.29l-.08 11.141h28.29zm-5.42-22.719-.19 28.289h11.14l.19-28.289zm-22.76 5.571h28.29l.08-11.141h-28.29zm5.42 22.718.19-28.289h-11.14l-.19 28.289z" fill="#09f" mask="url(#c)"/><g mask="url(#d)"><path clip-rule="evenodd" d="m1270.91 636.049c1.06.08 2-1.018 2.03-1.915.03-1.018-.95-2.137-2.02-2.13-1 .007-1.9.835-1.96 2.03-.05 1.002 1.13 2.14 1.95 2.015zm25-2.036c-.14 1.12.99 2.057 1.82 2.077 1.07.027 2.05-1.012 2.09-1.879.07-1.339-1.01-2.229-1.99-2.232-.93-.002-1.95.879-1.92 2.034zm.16 14.887c0-.067 0-.135 0-.202 0-2.853 0-5.707.01-8.56 0-.215-.07-.294-.28-.29-.5.01-1 .029-1.49-.002-.41-.026-.7.07-.8.516-.01.063-.06.119-.09.177-.86 1.48-2.23 2.112-3.79 2.427-.41.084-.84.078-1.26.103-.15.009-.2.079-.2.226-.01.676-.01 1.351-.02 2.026 0 .148.06.223.21.222.54-.002 1.08.001 1.62-.002.96-.003 1.93-.01 2.89-.014.11 0 .2.029.19.18 0 .277.01.554.01.83.01 1.817.01 3.633.02 5.45 0 2.267.01 4.534-.01 6.801-.01.596.13 1.206-.09 1.793-.02.029.01.072.01.108.03.154.07.306.08.461.04.477.09.534.56.541.72.011 1.45.009 2.17.035.18.007.23-.037.23-.215 0-1.29.02-2.58.03-3.87 0-2.914 0-5.827 0-8.741zm-13.79 1.018c.08-.056.11-.088.16-.115.69-.45 1.23-1.059 1.61-1.799.28-.574.44-1.205.53-1.858.16-1.142-.02-2.22-.48-3.253-.62-1.383-1.67-2.258-3.08-2.667-.63-.181-1.28-.292-1.92-.391-1.34-.202-2.63-.041-3.88.497-.92.394-1.7.951-2.31 1.786-.48.668-.79 1.407-1 2.191-.18.655-.29 1.329-.42 1.997-.08.438-.05.468.39.485.04.002.09.014.13.017.7.042 1.4.086 2.1.122.13.007.22-.049.24-.22.04-.311.11-.617.17-.925.12-.565.31-1.105.58-1.607.16-.298.35-.599.59-.829.23-.23.55-.382.83-.55.89-.515 1.85-.541 2.78-.219.72.248 1.41.606 1.84 1.326.26.424.49.846.5 1.357 0 .195-.01.389-.02.584-.02 1.039-.5 1.821-1.32 2.385-.51.35-1.09.587-1.7.654-.55.06-1.11.061-1.66.046-.27-.007-.31-.013-.32.263-.01.667-.02 1.334-.04 2.001-.01.199.07.264.25.266.72.007 1.43.034 2.15.034.49 0 .95.135 1.4.325.49.21.88.564 1.25.96.6.661.85 1.465.89 2.347.02.533-.06 1.047-.26 1.557-.15.387-.35.726-.6 1.028-.4.473-.88.85-1.44 1.104-.47.212-.95.349-1.47.401-.61.062-1.21.026-1.8-.129-.49-.129-.97-.308-1.35-.66-.32-.298-.58-.667-.86-1.01-.35-.436-.44-.997-.63-1.508-.11-.296-.13-.626-.18-.944-.03-.203-.12-.26-.31-.242-.25.025-.51.033-.76.042-.55.019-1.1.031-1.65.051-.2.007-.25.086-.2.289.06.314.11.632.17.949.13.796.28 1.584.61 2.328.37.849 1 1.475 1.68 2.045.52.437 1.12.76 1.77.955.54.162 1.08.342 1.63.408.64.075 1.3.037 1.94.044.84.009 1.64-.21 2.44-.465.61-.195 1.18-.461 1.72-.809.71-.459 1.28-1.064 1.67-1.826.16-.309.33-.621.44-.951.17-.545.37-1.099.43-1.662.08-.755.07-1.518-.08-2.279-.18-.894-.51-1.714-1.06-2.422-.53-.695-1.22-1.219-2.09-1.504zm2.09-22.792c6.35 0 12.7 0 19.05-.001.17 0 .34-.02.51-.017 1.48.027 2.76 1.036 3.29 2.391.08.208.11.451.11.679.01 3.327.01 6.655.01 9.982 0 5.769-.01 11.538 0 17.307 0 .317-.07.545-.3.767-.92.932-1.83 1.881-2.74 2.822-1.65 1.701-3.31 3.403-4.97 5.099-1.02 1.05-2.06 2.084-3.08 3.139-.17.174-.33.25-.57.248-2.03-.014-4.07-.015-6.1-.015-1.84 0-3.67.01-5.51.009-2.35 0-4.71-.009-7.06-.009-2.34 0-4.67.008-7 .01-1.89.002-3.78.008-5.66-.007-.23-.002-.47-.098-.69-.19-1.03-.433-1.75-1.183-2.13-2.256-.09-.242-.15-.507-.15-.762-.01-2.118 0-4.236 0-6.355 0-3.973 0-7.947 0-11.92 0-5.176 0-10.351 0-15.526 0-.721-.02-1.443 0-2.163.03-.723.34-1.344.77-1.9.46-.593 1.07-.952 1.76-1.206.45-.166.9-.129 1.36-.127 1.44.004 2.87.001 4.3.001 4.94.001 9.87.001 14.8.001z" fill="#09f" fill-rule="evenodd"/></g><path d="m1218.86 627.107v7.072h-42.72v-7.072z" fill="#666"/><path d="m1218.86 673.078v7.073h-42.72v-7.073z" fill="#666"/><path d="m1229.54 650.093v7.072h-62.3v-7.072z" fill="#666"/><path clip-rule="evenodd" d="m1126.46 629.142h-76.73c-3.08 0-5.57 2.494-5.57 5.571v6.007c0 3.076 2.49 5.57 5.57 5.57h76.73c3.08 0 5.57-2.494 5.57-5.57v-6.007c0-3.077-2.49-5.571-5.57-5.571zm-76.73-5.571c-6.15 0-11.14 4.988-11.14 11.142v6.007c0 6.153 4.99 11.141 11.14 11.141h76.73c6.15 0 11.14-4.988 11.14-11.141v-6.007c0-6.154-4.99-11.142-11.14-11.142z" fill="#ffbe00" fill-rule="evenodd"/><path clip-rule="evenodd" d="m994.116 867.571v-70.725c0-12.547-10.171-22.719-22.719-22.719-12.547 0-22.719 10.172-22.719 22.72v70.724c0 12.548 10.172 22.719 22.719 22.719 12.548 0 22.719-10.171 22.719-22.719zm5.571-70.725c0-15.624-12.666-28.289-28.29-28.289s-28.29 12.665-28.29 28.29v70.724c0 15.624 12.666 28.29 28.29 28.29s28.29-12.666 28.29-28.29z" fill="#666" fill-rule="evenodd"/><path clip-rule="evenodd" d="m801.66 752.643-28.29 49.507h56.579zm0 11.228-18.691 32.708 37.381.001z" fill="#09f" fill-rule="evenodd"/><path clip-rule="evenodd" d="m895.168 823.569-35.362-35.362 3.939-3.939 35.362 35.362z" fill="#ff7100" fill-rule="evenodd"/><path clip-rule="evenodd" d="m859.806 819.63 35.362-35.362 3.939 3.939-35.362 35.362z" fill="#ff7100" fill-rule="evenodd"/><path clip-rule="evenodd" d="m807.878 992.461c-4.075-.519-9.074.766-15.652 7.004l-3.833-4.042c7.369-6.988 13.953-9.282 20.189-8.488 5.96.759 11.031 4.319 15.373 7.427.131.094.262.188.391.281 4.435 3.176 8.129 5.827 12.079 6.587 3.662.71 8.032-.16 13.828-5.785l3.88 3.998c-6.709 6.507-12.839 8.407-18.767 7.257-5.188-1.01-9.811-4.33-13.873-7.247-.263-.189-.523-.376-.781-.561-4.516-3.233-8.483-5.877-12.834-6.431z" fill="#ee4332" fill-rule="evenodd"/><path clip-rule="evenodd" d="m807.878 1010.65c-4.075-.52-9.074.77-15.652 7.01l-3.833-4.04c7.369-6.99 13.953-9.29 20.189-8.49 5.96.76 11.031 4.32 15.373 7.42.131.1.262.19.391.29 4.435 3.17 8.129 5.82 12.079 6.58 3.662.71 8.032-.16 13.828-5.78l3.88 4c-6.709 6.51-12.839 8.4-18.767 7.25-5.188-1-9.811-4.33-13.873-7.24-.263-.19-.523-.38-.781-.57-4.516-3.23-8.483-5.87-12.834-6.43z" fill="#ee4332" fill-rule="evenodd"/><path clip-rule="evenodd" d="m1208.35 805.687c5.83 0 10.59-4.768 10.59-10.609v-17.681c0-5.84-4.76-10.608-10.59-10.608h-21.27c-5.82 0-10.58 4.768-10.58 10.608v17.681c0 5.841 4.76 10.609 10.58 10.609zm-22.12-16.18h2.19c.91 0 1.6-.75 1.66-1.661v-10.555c0-.911-.75-1.661-1.66-1.661h-2.19c-.91 0-1.66.75-1.66 1.661v10.555c0 .911.75 1.661 1.66 1.661zm22.98 0h-2.19c-.91 0-1.66-.75-1.66-1.661v-10.555c0-.911.75-1.661 1.66-1.661h2.19c.91 0 1.65.75 1.65 1.661v10.555c0 .911-.74 1.661-1.65 1.661zm-7.59 7.019c0-2.09-1.87-3.805-3.96-3.805-2.08 0-3.9 1.661-3.95 3.805v2.036c0 1.178.96 2.089 2.08 2.089h3.74c1.18 0 2.09-.964 2.09-2.089z" fill="#09f" fill-rule="evenodd"/><path clip-rule="evenodd" d="m1407.86 919.113h-186.89v96.717h186.89zm-192.46-5.571v107.858h198.03v-107.858z" fill="#666" fill-rule="evenodd"/><path d="m1289.74 1029.7 14.96 15.06h-29.91z" fill="#09f"/><path clip-rule="evenodd" d="m107.499 848.613-27.9557-28.145 3.9258-3.952 24.0299 24.193 24.03-24.193 3.926 3.952z" fill="#666" fill-rule="evenodd"/><path clip-rule="evenodd" d="m110.285 711.332v133.504h-5.571v-133.504z" fill="#666" fill-rule="evenodd"/><path clip-rule="evenodd" d="m748.617 716.264h144.986v5.571h-144.986z" fill="#666" fill-rule="evenodd"/><path clip-rule="evenodd" d="m42.8203 608.784 27.956 28.145-3.9258 3.952-24.0302-24.192-24.0302 24.192-3.9258-3.952z" fill="#666" fill-rule="evenodd"/><path clip-rule="evenodd" d="m40.0239 716.361v-103.679h5.5667v103.679z" fill="#666" fill-rule="evenodd"/><path clip-rule="evenodd" d="m304.82 766.283c5.676 0 10.342-4.643 10.342-10.449 0-5.807-4.666-10.45-10.342-10.45-5.677 0-10.343 4.643-10.343 10.45 0 5.806 4.666 10.449 10.343 10.449zm0 5.571c8.788 0 15.913-7.173 15.913-16.02 0-8.848-7.125-16.021-15.913-16.021-8.789 0-15.914 7.173-15.914 16.021 0 8.847 7.125 16.02 15.914 16.02z" fill="#2cbe60" fill-rule="evenodd"/><path clip-rule="evenodd" d="m587.718 650.042c5.677 0 10.343-4.643 10.343-10.45s-4.666-10.45-10.343-10.45c-5.676 0-10.342 4.643-10.342 10.45s4.666 10.45 10.342 10.45zm0 5.57c8.789 0 15.913-7.172 15.913-16.02s-7.124-16.021-15.913-16.021c-8.788 0-15.913 7.173-15.913 16.021s7.125 16.02 15.913 16.02z" fill="#2cbe60" fill-rule="evenodd"/><path clip-rule="evenodd" d="m534.675 758.965h-217.478v-5.57h217.478z" fill="#2cbe60" fill-rule="evenodd"/><path d="m68.039 558.845c.3992-2.668.0799-5.569-1.4372-8.599-2.3154-4.662-6.8665-8.107-12.1362-8.755-6.4141-.803-12.1895 2.098-15.3566 6.838-.7985 1.192-2.5018 1.373-3.7261.57-1.7831-1.191-3.9123-1.891-6.2278-1.891-2.8477 0-5.802 1.062-7.7714 3.057-3.3535 3.393-3.6728 6.449-3.3269 8.961.1597 1.14-.5056 2.202-1.517 2.772-4.2583 2.305-7.07946 6.812-6.76009 11.966.42579 6.916 6.73349 12.096 13.83959 12.096h39.6291c6.5472 0 12.4822-4.455 13.5202-10.749.9847-5.983-2.2888-11.267-7.2924-13.65-1.038-.466-1.5969-1.528-1.4372-2.616z" fill="#09f"/><path clip-rule="evenodd" d="m160.545 660.715c-27.739 0-50.258 22.644-50.258 50.617h-5.571c0-31.014 24.978-56.188 55.829-56.188z" fill="#666" fill-rule="evenodd"/><path clip-rule="evenodd" d="m748.616 721.835c-27.739 0-50.258 22.644-50.258 50.616h-5.571c0-31.013 24.978-56.187 55.829-56.187z" fill="#666" fill-rule="evenodd"/><path clip-rule="evenodd" d="m534.675 753.394c27.757 0 50.258-22.501 50.258-50.258h5.571c0 30.834-24.996 55.829-55.829 55.829z" fill="#2cbe60" fill-rule="evenodd"/><path clip-rule="evenodd" d="m827.165 612.962c0-27.757-22.501-50.258-50.258-50.258v-5.571c30.833 0 55.829 24.996 55.829 55.829z" fill="#395497" fill-rule="evenodd"/><path clip-rule="evenodd" d="m392.938 618.999h-190.383c-20.518 0-37.151 16.633-37.151 37.151s16.633 37.15 37.151 37.15h190.383c20.518 0 37.151-16.632 37.151-37.15s-16.633-37.151-37.151-37.151zm-190.383-5.571c-23.595 0-42.722 19.127-42.722 42.722 0 23.594 19.127 42.721 42.722 42.721h190.383c23.594 0 42.721-19.127 42.721-42.721 0-23.595-19.127-42.722-42.721-42.722z" fill="#666" fill-rule="evenodd"/><path clip-rule="evenodd" d="m733.01 1005.2v-190.386c0-20.518-16.633-37.151-37.15-37.151-20.518 0-37.151 16.633-37.151 37.151v190.386c0 20.52 16.633 37.15 37.151 37.15 20.517 0 37.15-16.63 37.15-37.15zm5.571-190.386c0-23.594-19.127-42.721-42.721-42.721-23.595 0-42.722 19.127-42.722 42.721v190.386c0 23.59 19.127 42.72 42.722 42.72 23.594 0 42.721-19.13 42.721-42.72z" fill="#666" fill-rule="evenodd"/><path clip-rule="evenodd" d="m342.424 942.51h-186.888v77.26h186.888zm-192.458-5.571v88.411h198.028v-88.411z" fill="#606060" fill-rule="evenodd"/><path clip-rule="evenodd" d="m1285.86 919.113h-64.89v96.717h64.89zm-70.46-5.571v107.858h76.03v-107.858z" fill="#666" fill-rule="evenodd"/><path clip-rule="evenodd" d="m248.98 997.231c8.606 0 15.647-7.034 15.647-15.79s-7.041-15.79-15.647-15.79-15.647 7.034-15.647 15.79 7.041 15.79 15.647 15.79zm0 5.569c11.718 0 21.217-9.562 21.217-21.359s-9.499-21.361-21.217-21.361-21.217 9.564-21.217 21.361 9.499 21.359 21.217 21.359z" fill="#666" fill-rule="evenodd"/><path clip-rule="evenodd" d="m197.706 962.003-22.241 38.027h44.482zm12.529 32.436-12.529-21.421-12.529 21.421z" fill="#ff7100" fill-rule="evenodd"/><path clip-rule="evenodd" d="m300.203 999.763 22.241-38.026h-44.482zm-12.529-32.437 12.529 21.421 12.529-21.421z" fill="#ff7100" fill-rule="evenodd"/><path clip-rule="evenodd" d="m341.602 826.03-59.017 59.017v-59.017zm-13.449 5.571h-39.998v39.997z" fill="#ffbe00" fill-rule="evenodd"/><path clip-rule="evenodd" d="m684.616 689.742-59.017 59.017v-59.017zm-13.449 5.571h-39.997v39.997z" fill="#2cbe60" fill-rule="evenodd"/><path clip-rule="evenodd" d="m1411.31 535.916-59.01 59.017v-59.017zm-13.45 5.571h-39.99v39.997z" fill="#3b579d" fill-rule="evenodd"/><path clip-rule="evenodd" d="m430.357 941.681c30.61 0 55.489-24.993 55.489-55.902s-24.879-55.902-55.489-55.902c-30.611 0-55.49 24.993-55.49 55.902s24.879 55.902 55.49 55.902zm0 5.571c33.722 0 61.06-27.522 61.06-61.473 0-33.95-27.338-61.473-61.06-61.473-33.723 0-61.061 27.523-61.061 61.473 0 33.951 27.338 61.473 61.061 61.473z" fill="#666" fill-rule="evenodd"/><path d="m356.095 885.779c0-9.818 1.921-19.54 5.653-28.611s9.202-17.313 16.098-24.256c6.896-6.942 15.083-12.449 24.093-16.206 9.01-3.758 18.667-5.692 28.419-5.692v74.765z" fill="#09f"/><path clip-rule="evenodd" d="m42.052 759.033 10.301-10.37-10.301-10.371-10.301 10.371zm18.1526-10.37-18.1526-18.276-18.1526 18.276 18.1526 18.275z" fill="#ee4332" fill-rule="evenodd"/><path clip-rule="evenodd" d="m830.438 653.418 12.084-12.166-12.084-12.167-12.085 12.167zm19.936-12.166-19.936-20.071-19.937 20.071 19.937 20.071z" fill="#ff7100" fill-rule="evenodd"/><path d="m405.601 736.228h7.073v42.722h-7.073z" fill="#2cbe60"/><path d="m451.572 736.228h7.072v42.722h-7.072z" fill="#2cbe60"/><path d="m428.586 725.548h7.073v62.303h-7.073z" fill="#2cbe60"/><path d="m227.022 786.094c0-8.848 7.125-16.02 15.913-16.02 8.789 0 15.913 7.172 15.913 16.02s-7.124 16.021-15.913 16.021c-8.788 0-15.913-7.173-15.913-16.021z" fill="#242424"/><path clip-rule="evenodd" d="m242.935 775.644c-5.676 0-10.342 4.643-10.342 10.45s4.665 10.45 10.342 10.45 10.342-4.643 10.342-10.45-4.665-10.45-10.342-10.45zm0-5.57c-8.788 0-15.913 7.172-15.913 16.02s7.125 16.021 15.913 16.021c8.789 0 15.913-7.173 15.913-16.021s-7.124-16.02-15.913-16.02z" fill="#09f" fill-rule="evenodd"/><path d="m181.052 819.915c0-8.847 7.125-16.02 15.913-16.02 8.789 0 15.913 7.173 15.913 16.02 0 8.848-7.124 16.021-15.913 16.021-8.788 0-15.913-7.173-15.913-16.021z" fill="#242424"/><path clip-rule="evenodd" d="m196.965 809.466c-5.676 0-10.342 4.643-10.342 10.449 0 5.807 4.666 10.45 10.342 10.45 5.677 0 10.342-4.643 10.342-10.45 0-5.806-4.665-10.449-10.342-10.449zm0-5.571c-8.788 0-15.913 7.173-15.913 16.02 0 8.848 7.125 16.021 15.913 16.021 8.789 0 15.913-7.173 15.913-16.021 0-8.847-7.124-16.02-15.913-16.02z" fill="#3b579d" fill-rule="evenodd"/><path d="m814.144 851.658c8.848 0 16.021 7.125 16.021 15.913 0 8.789-7.173 15.913-16.021 15.913s-16.02-7.124-16.02-15.913c0-8.788 7.172-15.913 16.02-15.913z" fill="#242424"/><path clip-rule="evenodd" d="m824.594 867.571c0-5.676-4.643-10.342-10.45-10.342s-10.45 4.666-10.45 10.342c0 5.677 4.643 10.343 10.45 10.343s10.45-4.666 10.45-10.343zm5.571 0c0-8.788-7.173-15.913-16.021-15.913s-16.02 7.125-16.02 15.913c0 8.789 7.172 15.913 16.02 15.913s16.021-7.124 16.021-15.913z" fill="#3b579d" fill-rule="evenodd"/><path d="m1010.4 986.034c8.85 0 16.02 7.125 16.02 15.916 0 8.79-7.17 15.91-16.02 15.91-8.84 0-16.016-7.12-16.016-15.91 0-8.791 7.176-15.916 16.016-15.916z" fill="#242424"/><path clip-rule="evenodd" d="m1020.85 1001.95c0-5.679-4.64-10.345-10.45-10.345-5.8 0-10.445 4.666-10.446 10.345 0 5.67 4.646 10.34 10.446 10.34 5.81 0 10.45-4.67 10.45-10.34zm5.57 0c0-8.791-7.17-15.916-16.02-15.916-8.84 0-16.016 7.125-16.016 15.916 0 8.79 7.176 15.91 16.016 15.91 8.85 0 16.02-7.12 16.02-15.91z" fill="#09f" fill-rule="evenodd"/><path d="m888.405 918.846c8.848 0 16.021 7.125 16.021 15.913 0 8.789-7.173 15.913-16.021 15.913s-16.02-7.124-16.02-15.913c0-8.788 7.172-15.913 16.02-15.913z" fill="#242424"/><path clip-rule="evenodd" d="m898.855 934.759c0-5.676-4.643-10.342-10.45-10.342-5.806 0-10.45 4.666-10.45 10.342 0 5.677 4.644 10.343 10.45 10.343 5.807 0 10.45-4.666 10.45-10.343zm5.571 0c0-8.788-7.173-15.913-16.021-15.913s-16.02 7.125-16.02 15.913c0 8.789 7.172 15.913 16.02 15.913s16.021-7.124 16.021-15.913z" fill="#2cbe60" fill-rule="evenodd"/><path d="m145.796 544.005c8.848 0 16.021 7.125 16.021 15.914 0 8.788-7.173 15.913-16.021 15.913-8.847 0-16.02-7.125-16.02-15.913 0-8.789 7.173-15.914 16.02-15.914z" fill="#242424"/><path clip-rule="evenodd" d="m156.246 559.919c0-5.677-4.643-10.343-10.45-10.343-5.806 0-10.449 4.666-10.449 10.343 0 5.676 4.643 10.342 10.449 10.342 5.807 0 10.45-4.666 10.45-10.342zm5.571 0c0-8.789-7.173-15.914-16.021-15.914-8.847 0-16.02 7.125-16.02 15.914 0 8.788 7.173 15.913 16.02 15.913 8.848 0 16.021-7.125 16.021-15.913z" fill="#ee4332" fill-rule="evenodd"/><path d="m599.858 816.087v-3.825c0-1.023-.872-1.866-1.901-1.866h-8.168c-1.06 0-1.902.843-1.902 1.866v3.825z" fill="#09f"/><path d="m600.389 820.244h-16.242c-.717 0-1.403-.361-1.777-.994l-6.111-10.027h-19.547l-6.079 9.997c-.406.663-1.092 1.024-1.809 1.024h-16.242c-1.777 0-3.211 1.385-3.211 3.101v39.356c0 1.717 1.434 3.102 3.211 3.102h67.838c1.777 0 3.211-1.385 3.211-3.102v-39.386c-.031-1.686-1.465-3.071-3.242-3.071zm-33.888 34.95c-7.919 0-14.145-6.496-14.145-14.145 0-7.648 6.226-14.115 14.145-14.145 7.919 0 14.145 6.497 14.145 14.145-.031 7.649-6.226 14.145-14.145 14.145z" fill="#09f"/><path d="m564.732 1022.84v-126.382l-28.504 28.849h-105.873v97.533z" fill="#242424"/><path clip-rule="evenodd" d="m427.57 1025.63h139.948v-135.954l-32.453 32.845h-107.495zm5.571-5.57v-91.968h104.251l24.555-24.852v116.82z" fill="#666" fill-rule="evenodd"/><path d="m522.266 950.825h25.068v55.705h-25.068z" fill="#ee4332"/><path d="m451.24 984.249h25.068v22.281h-25.068z" fill="#ee4332"/><path d="m486.056 966.144h25.068v40.386h-25.068z" fill="#666"/><path d="m414.443 656.15c0 13.763-11.083 24.921-24.754 24.921s-24.753-11.158-24.753-24.921c0-13.764 11.082-24.921 24.753-24.921s24.754 11.157 24.754 24.921z" fill="#ee4332"/><path d="m696.027 1025.58c-13.671 0-24.753-11.09-24.753-24.76s11.082-24.752 24.753-24.752 24.754 11.082 24.754 24.752-11.083 24.76-24.754 24.76z" fill="#ee4332"/><path d="m893.602 574.064c-5.859 0-10.608-4.75-10.608-10.609s4.749-10.609 10.608-10.609 10.609 4.75 10.609 10.609-4.75 10.609-10.609 10.609z" fill="#ffbe00"/><path d="m38.4553 824.557c-5.859 0-10.6087-4.749-10.6087-10.608s4.7497-10.609 10.6087-10.609 10.6087 4.75 10.6087 10.609-4.7497 10.608-10.6087 10.608z" fill="#ffbe00"/><path d="m1049.2 574.064c-5.86 0-10.61-4.75-10.61-10.609s4.75-10.609 10.61-10.609c5.85 0 10.6 4.75 10.6 10.609s-4.75 10.609-10.6 10.609z" fill="#666"/><path d="m1126.99 574.064c-5.86 0-10.61-4.75-10.61-10.609s4.75-10.609 10.61-10.609 10.61 4.75 10.61 10.609-4.75 10.609-10.61 10.609z" fill="#2cbe60"/><path d="m893.602 651.861c-5.859 0-10.608-4.75-10.608-10.609s4.749-10.608 10.608-10.608 10.609 4.749 10.609 10.608-4.75 10.609-10.609 10.609z" fill="#ee4332"/><path d="m38.4553 902.355c-5.859 0-10.6087-4.75-10.6087-10.609s4.7497-10.609 10.6087-10.609 10.6087 4.75 10.6087 10.609-4.7497 10.609-10.6087 10.609z" fill="#ee4332"/><path d="m893.602 729.658c-5.859 0-10.608-4.749-10.608-10.608s4.749-10.609 10.608-10.609 10.609 4.75 10.609 10.609-4.75 10.608-10.609 10.608z" fill="#666"/><path d="m479.628 570.951c-5.859 0-10.609-4.749-10.609-10.608s4.75-10.609 10.609-10.609 10.608 4.75 10.608 10.609-4.749 10.608-10.608 10.608z" fill="#ee4332"/><path d="m1128.76 731.426c-6.83 0-12.37-5.541-12.37-12.377 0-6.835 5.54-12.377 12.37-12.377 6.84 0 12.38 5.542 12.38 12.377 0 6.836-5.54 12.377-12.38 12.377z" fill="#666"/><path d="m1287.89 978.962c-6.83 0-12.38-5.541-12.38-12.377 0-6.835 5.55-12.377 12.38-12.377 6.84 0 12.38 5.542 12.38 12.377 0 6.836-5.54 12.377-12.38 12.377z" fill="#ffbe00"/><path d="m971.399 807.455c-5.859 0-10.609-4.75-10.609-10.609s4.75-10.609 10.609-10.609 10.608 4.75 10.608 10.609-4.749 10.609-10.608 10.609z" fill="#09f"/><path d="m553.439 570.951c-5.859 0-10.609-4.749-10.609-10.608s4.75-10.609 10.609-10.609 10.608 4.75 10.608 10.609-4.749 10.608-10.608 10.608z" fill="#ffbe00"/><path d="m405.815 570.951c-5.859 0-10.609-4.749-10.609-10.608s4.75-10.609 10.609-10.609 10.609 4.75 10.609 10.609-4.75 10.608-10.609 10.608z" fill="#666"/><circle cx="94.994" cy="981.473" fill="#666" r="2.78333"/><circle cx="111.694" cy="981.473" fill="#666" r="2.78333"/><circle cx="128.394" cy="981.473" fill="#666" r="2.78333"/><path clip-rule="evenodd" d="m1380.31 342.698 27.95 28.145-3.92 3.952-24.03-24.193-24.03 24.193-3.93-3.952z" fill="#666" fill-rule="evenodd"/><path clip-rule="evenodd" d="m1377.51 450.274v-103.679h5.57v103.679z" fill="#666" fill-rule="evenodd"/><path clip-rule="evenodd" d="m1379.54 492.947 10.3-10.37-10.3-10.371-10.3 10.371zm18.15-10.37-18.15-18.276-18.15 18.276 18.15 18.275z" fill="#ee4332" fill-rule="evenodd"/><g clip-path="url(#b)"><path clip-rule="evenodd" d="m1198.5 1423.56v-152.05h-5.57v152.05z" fill="#09f" fill-rule="evenodd"/><path clip-rule="evenodd" d="m665.276 1464.98h-275.826v5.57h275.826z" fill="#2cbe60" fill-rule="evenodd"/><path clip-rule="evenodd" d="m1194.96 1108.84v-31.83h-5.57v31.83z" fill="#ee4332" fill-rule="evenodd"/><path clip-rule="evenodd" d="m853.714 1236.14v-49.5h-5.571v49.5z" fill="#2cbe60" fill-rule="evenodd"/><path clip-rule="evenodd" d="m389.45 1259.88c-1.539 0-2.786 1.25-2.786 2.79v.07c0 1.54 1.247 2.78 2.786 2.78 1.538 0 2.785-1.24 2.785-2.78v-.07c0-1.54-1.247-2.79-2.785-2.79zm0 17.02c-1.539 0-2.786 1.25-2.786 2.79v.14c0 1.54 1.247 2.78 2.786 2.78 1.538 0 2.785-1.24 2.785-2.78v-.14c0-1.54-1.247-2.79-2.785-2.79zm0 17.09c-1.539 0-2.786 1.25-2.786 2.79v.14c0 1.54 1.247 2.79 2.786 2.79 1.538 0 2.785-1.25 2.785-2.79v-.14c0-1.54-1.247-2.79-2.785-2.79zm0 17.1c-1.539 0-2.786 1.24-2.786 2.78v.14c0 1.54 1.247 2.79 2.786 2.79 1.538 0 2.785-1.25 2.785-2.79v-.14c0-1.54-1.247-2.78-2.785-2.78zm0 17.09c-1.539 0-2.786 1.24-2.786 2.78v.14c0 1.54 1.247 2.79 2.786 2.79 1.538 0 2.785-1.25 2.785-2.79v-.14c0-1.54-1.247-2.78-2.785-2.78zm0 17.09c-1.539 0-2.786 1.25-2.786 2.78v.15c0 1.53 1.247 2.78 2.786 2.78 1.538 0 2.785-1.25 2.785-2.78v-.15c0-1.53-1.247-2.78-2.785-2.78zm0 17.09c-1.539 0-2.786 1.25-2.786 2.79v.14c0 1.54 1.247 2.78 2.786 2.78 1.538 0 2.785-1.24 2.785-2.78v-.14c0-1.54-1.247-2.79-2.785-2.79zm0 17.09c-1.539 0-2.786 1.25-2.786 2.79v.14c0 1.54 1.247 2.78 2.786 2.78 1.538 0 2.785-1.24 2.785-2.78v-.14c0-1.54-1.247-2.79-2.785-2.79zm0 17.09c-1.539 0-2.786 1.25-2.786 2.79v.14c0 1.54 1.247 2.79 2.786 2.79 1.538 0 2.785-1.25 2.785-2.79v-.14c0-1.54-1.247-2.79-2.785-2.79zm0 17.1c-1.539 0-2.786 1.24-2.786 2.78v.14c0 1.54 1.247 2.79 2.786 2.79 1.538 0 2.785-1.25 2.785-2.79v-.14c0-1.54-1.247-2.78-2.785-2.78zm0 17.09c-1.539 0-2.786 1.25-2.786 2.78v.14c0 1.54 1.247 2.79 2.786 2.79 1.538 0 2.785-1.25 2.785-2.79v-.14c0-1.53-1.247-2.78-2.785-2.78zm0 17.09c-1.539 0-2.786 1.25-2.786 2.79v.14c0 1.53 1.247 2.78 2.786 2.78 1.538 0 2.785-1.25 2.785-2.78v-.14c0-1.54-1.247-2.79-2.785-2.79zm0 17.09c-1.539 0-2.786 1.25-2.786 2.79v.07c0 1.54 1.247 2.78 2.786 2.78 1.538 0 2.785-1.24 2.785-2.78v-.07c0-1.54-1.247-2.79-2.785-2.79z" fill="#a6a6a6" fill-rule="evenodd"/><path clip-rule="evenodd" d="m98.4614 1092.93c0 1.54 1.2471 2.78 2.7856 2.78h.063c1.539 0 2.786-1.24 2.786-2.78s-1.247-2.79-2.786-2.79h-.063c-1.5385 0-2.7856 1.25-2.7856 2.79zm15.3166 0c0 1.54 1.247 2.78 2.786 2.78h.127c1.538 0 2.785-1.24 2.785-2.78s-1.247-2.79-2.785-2.79h-.127c-1.539 0-2.786 1.25-2.786 2.79zm15.38 0c0 1.54 1.248 2.78 2.786 2.78h.063.064c1.539.01 2.79-1.24 2.794-2.77.005-1.54-1.238-2.79-2.776-2.8h-.082-.063c-1.538 0-2.786 1.25-2.786 2.79zm16.579 4.51c-1.085 1.09-1.079 2.85.012 3.94l.09.09c1.084 1.09 2.848 1.09 3.939.01s1.097-2.85.013-3.94c-.039-.04-.077-.08-.115-.11-1.092-1.09-2.855-1.08-3.939.01zm8.544 14.91c-1.538.01-2.781 1.26-2.776 2.8v.06.06c0 1.54 1.247 2.79 2.785 2.79 1.539 0 2.786-1.25 2.786-2.79v-.06l-.001-.08c-.004-1.54-1.255-2.78-2.794-2.78zm.009 15.39c-1.538 0-2.785 1.25-2.785 2.79v.12c0 1.54 1.247 2.79 2.785 2.79 1.539 0 2.786-1.25 2.786-2.79v-.12c0-1.54-1.247-2.79-2.786-2.79zm0 15.38c-1.538 0-2.785 1.25-2.785 2.79v.06c0 1.54 1.247 2.79 2.785 2.79 1.539 0 2.786-1.25 2.786-2.79v-.06c0-1.54-1.247-2.79-2.786-2.79z" fill="#666" fill-rule="evenodd"/><path clip-rule="evenodd" d="m1244.47 1423.56v-152.05h-5.57v152.05z" fill="#3b579d" fill-rule="evenodd"/><path clip-rule="evenodd" d="m667.045 1397.79h-139.681v5.57h139.681z" fill="#3b579d" fill-rule="evenodd"/><path clip-rule="evenodd" d="m527.363 1532.17h-139.681v5.57h139.681z" fill="#09f" fill-rule="evenodd"/><path clip-rule="evenodd" d="m1292.96 1090.14h-97.25v5.57h97.25z" fill="#ee4332" fill-rule="evenodd"/><path clip-rule="evenodd" d="m850.929 1090.14h-189.189v5.57h189.189z" fill="#395497" fill-rule="evenodd"/><path d="m450.18 1252c1.04-1.04 1.04-2.73 0-3.77l-5.152-5.15c-.968-.97-1.04-2.54-.097-3.53.968-.99 2.564-1.02 3.532-.03l5.2 5.2c1.04 1.04 2.733 1.04 3.773 0l2.443-2.44c1.04-1.04 1.04-2.73 0-3.77l-5.152-5.15c-.967-.97-1.04-2.54-.096-3.53.967-.99 2.564-1.02 3.531-.03l5.225 5.2c1.04 1.07 2.733 1.07 3.773 0 1.379-1.35 3.048-1.3 4.136-.24l2.758 2.76c4.595 4.59 5.587 11.41 3.023 16.97-.653 1.43-.387 3.12.726 4.23l8.054 8.05c1.065 1.07 1.137 2.81.097 3.9-1.064 1.11-2.83 1.11-3.894.05l-8.103-8.1c-1.113-1.12-2.806-1.41-4.233-.73-5.563 2.59-12.409 1.57-17.004-3.02l-2.758-2.76c-1.088-1.09-1.112-2.78.218-4.11z" fill="#ff7100"/><path d="m1117.77 1099.93c2.92-2.11 7.39-1.48 9.69.24.88.81.62 1.85-.3 2.7l-3.24 2.98c-.81.76-2.15.76-2.96 0l-3.41-3.14c-.86-.77-.75-2.09.22-2.78z" fill="#ffbe00"/><path d="m1112.8 1096.52c-.75.69-2.06.61-2.79-.06-.75-.69-.86-1.93-.11-2.62 6.92-6.39 18.16-6.39 25.08 0 .77.73.88 2.01.09 2.74-.81.75-2.2.69-2.99-.06-5.34-4.91-13.96-4.91-19.28 0z" fill="#ffbe00"/><path d="m1103.39 1090.35c-.72-.67-.61-2.03.09-2.72 10.55-9.73 27.5-9.57 38.05.15.77.73.88 2.01.11 2.72-.79.73-2.17.64-2.97-.09-8.96-8.27-23.52-8.27-32.48 0-.75.69-2.05.63-2.8-.06z" fill="#ffbe00"/><path d="m1096.62 1084.1c-.72-.67-.81-1.92-.08-2.59 14.31-13.21 37.5-13.21 51.78 0 .77.73.88 2.01.09 2.74-.81.75-2.2.69-2.99-.06-12.68-11.71-33.28-11.73-45.96 0-.75.69-2.09.6-2.84-.09z" fill="#ffbe00"/><path clip-rule="evenodd" d="m756.783 1162.63c2.218-3.16 6.903-3.16 9.121 0l16.081 22.93c4.437 6.32 13.807 6.32 18.243 0l5.545-7.91c1.043-1.49 2.745-2.37 4.561-2.37h10.536v-5.57h-10.536c-3.632 0-7.036 1.77-9.121 4.74l-5.545 7.91c-2.219 3.16-6.904 3.16-9.122 0l-16.081-22.93c-4.436-6.33-13.807-6.33-18.243 0l-16.081 22.93c-2.218 3.16-6.903 3.16-9.121 0l-16.082-22.93c-4.436-6.33-13.806-6.33-18.242 0l-16.082 22.93c-2.218 3.16-6.903 3.16-9.121 0l-5.545-7.91c-2.086-2.97-5.49-4.74-9.122-4.74h-10.536v5.57h10.536c1.816 0 3.518.88 4.561 2.37l5.545 7.91c4.437 6.32 13.807 6.32 18.243 0l16.081-22.93c2.218-3.16 6.904-3.16 9.122 0l16.081 22.93c4.436 6.32 13.806 6.32 18.243 0z" fill="#666" fill-rule="evenodd"/><path clip-rule="evenodd" d="m463.509 1173.18-76.029 76.02 3.94 3.94 76.028-76.03z" fill="#ffbe00" fill-rule="evenodd"/><path d="m240.928 1126.52c16.6 0 30.058-13.46 30.058-30.06s-13.458-30.05-30.058-30.05c-16.601 0-30.058 13.45-30.058 30.05s13.457 30.06 30.058 30.06z" fill="#242424"/><path d="m313.421 1248.52v173.28l-30.004-30.27h-111.445v-143.01z" fill="#242424"/><path clip-rule="evenodd" d="m285.739 1385.96 22.112 22.3v-154.17h-130.308v131.87zm-113.767-137.44h141.449v173.28l-30.004-30.27h-111.445z" fill="#666" fill-rule="evenodd"/><path d="m468.686 1091.68 19.45-19.45c.331-.33.781-.52 1.25-.52.468 0 .918.19 1.25.52l19.449 19.45c.248.24.416.56.484.9s.033.7-.101 1.02c-.133.33-.36.6-.651.8-.29.19-.632.29-.982.3h-2.21c-.117 0-.23.04-.312.12-.083.09-.13.2-.13.32v17.24c0 .47-.186.92-.518 1.25-.331.33-.781.51-1.25.51h-10.167c-.117 0-.23-.04-.313-.12-.082-.09-.129-.2-.129-.32v-8.4c0-1.17-.466-2.29-1.295-3.12s-1.953-1.3-3.125-1.3c-1.173 0-2.297.47-3.126 1.3s-1.295 1.95-1.295 3.12v8.4c0 .12-.046.23-.129.32-.083.08-.196.12-.313.12h-10.167c-.469 0-.918-.18-1.25-.51-.331-.33-.518-.78-.518-1.25v-17.24c0-.12-.046-.23-.129-.32-.083-.08-.196-.12-.313-.12h-2.21c-.35-.01-.691-.11-.982-.3-.291-.2-.517-.47-.651-.8-.134-.32-.169-.68-.101-1.02s.237-.66.484-.9zm20.7 1.25c.874 0 1.729-.26 2.455-.75.727-.48 1.294-1.17 1.629-1.98.334-.81.422-1.7.251-2.56-.17-.85-.591-1.64-1.21-2.26-.618-.62-1.406-1.04-2.263-1.21s-1.746-.08-2.554.25c-.808.34-1.498.9-1.984 1.63-.485.73-.745 1.58-.745 2.46 0 .58.115 1.15.337 1.69.222.53.547 1.02.958 1.43.41.41.898.74 1.434.96s1.111.34 1.692.34z" fill="#ffbe00"/><path d="m465.479 1188.41c8.788 0 15.913-7.13 15.913-15.92s-7.125-15.91-15.913-15.91c-8.789 0-15.913 7.12-15.913 15.91s7.124 15.92 15.913 15.92z" fill="#09f"/><path clip-rule="evenodd" d="m475.821 1172.49c0 5.71-4.63 10.34-10.342 10.34s-10.343-4.63-10.343-10.34 4.631-10.34 10.343-10.34 10.342 4.63 10.342 10.34zm5.571 0c0 8.79-7.125 15.92-15.913 15.92-8.789 0-15.913-7.13-15.913-15.92s7.124-15.91 15.913-15.91c8.788 0 15.913 7.12 15.913 15.91z" fill="#09f" fill-rule="evenodd"/><path d="m305.467 1465.74c6.19.11 12.097 2.58 16.474 6.88 4.377 4.31 6.883 10.12 6.99 16.2.076 4.54-1.248 9-3.798 12.79-2.549 3.79-6.206 6.73-10.488 8.43-.106.04-.22.07-.334.07h-5.228c-.243 0-.477-.1-.649-.27s-.269-.4-.269-.64v-11.81c.002-.24.099-.47.272-.64l6.164-6.06c.448-.51.682-1.16.656-1.84-.026-.67-.31-1.31-.795-1.78-.486-.48-1.136-.76-1.821-.78-.684-.02-1.352.21-1.869.65l-4.655 4.58c-.085.08-.187.15-.298.2-.112.04-.231.07-.352.07s-.241-.03-.352-.07c-.112-.05-.213-.12-.298-.2l-4.655-4.58c-.514-.47-1.193-.72-1.895-.71-.701.01-1.37.29-1.866.78s-.781 1.15-.793 1.83c-.013.69.247 1.36.724 1.87l6.157 6.05c.173.17.271.4.272.64v11.82c0 .24-.097.47-.269.64-.172.16-.405.26-.649.26h-5.232c-.113 0-.225-.02-.33-.06-4.281-1.71-7.935-4.65-10.484-8.44-2.548-3.78-3.871-8.24-3.794-12.78.103-6.09 2.607-11.9 6.984-16.21 4.378-4.31 10.287-6.78 16.48-6.89z" fill="#ffbe00"/><path d="m309.073 1451.87v6.77c0 .94-.38 1.85-1.057 2.51-.677.67-1.595 1.04-2.552 1.04s-1.875-.37-2.552-1.04c-.677-.66-1.057-1.57-1.057-2.51v-6.77c0-.94.38-1.85 1.057-2.51.677-.67 1.595-1.04 2.552-1.04s1.875.37 2.552 1.04c.677.66 1.057 1.57 1.057 2.51z" fill="#ffbe00"/><path d="m336.903 1483.49h8.271c.958 0 1.876.37 2.552 1.04.677.66 1.057 1.56 1.057 2.51 0 .94-.38 1.84-1.057 2.5-.676.67-1.594 1.04-2.552 1.04h-8.271c-.957 0-1.875-.37-2.552-1.04-.677-.66-1.057-1.56-1.057-2.5 0-.95.38-1.85 1.057-2.51.677-.67 1.595-1.04 2.552-1.04z" fill="#ffbe00"/><path d="m326.393 1465 6.877-6.77c.68-.65 1.592-1.01 2.54-1 .947.01 1.853.38 2.523 1.04s1.05 1.55 1.057 2.48-.358 1.83-1.017 2.5l-6.891 6.77c-.689.61-1.586.93-2.508.9s-1.798-.4-2.449-1.04c-.652-.64-1.028-1.51-1.053-2.41-.024-.91.305-1.79.921-2.47z" fill="#ffbe00"/><path d="m265.755 1483.49h8.272c.957 0 1.875.37 2.551 1.04.677.66 1.057 1.56 1.057 2.51 0 .94-.38 1.84-1.057 2.5-.676.67-1.594 1.04-2.551 1.04h-8.272c-.957 0-1.875-.37-2.552-1.04-.677-.66-1.057-1.56-1.057-2.5 0-.95.38-1.85 1.057-2.51.677-.67 1.595-1.04 2.552-1.04z" fill="#ffbe00"/><path d="m272.56 1458.23c.677-.67 1.595-1.04 2.552-1.04s1.874.37 2.551 1.04l6.877 6.78c.343.32.618.71.806 1.15.188.43.287.89.291 1.37.004.47-.088.93-.269 1.37-.182.43-.449.83-.788 1.16-.338.34-.741.6-1.184.78s-.917.27-1.396.26c-.479 0-.952-.1-1.392-.28-.44-.19-.838-.46-1.172-.8l-6.891-6.77c-.674-.67-1.052-1.57-1.049-2.51.003-.95.385-1.85 1.064-2.51z" fill="#ffbe00"/><path d="m296.442 1514.51h18.049c.957 0 1.875.37 2.552 1.04.676.66 1.057 1.57 1.057 2.51s-.381 1.84-1.057 2.51c-.677.66-1.595 1.03-2.552 1.03h-18.049c-.957 0-1.875-.37-2.552-1.03-.677-.67-1.057-1.57-1.057-2.51s.38-1.85 1.057-2.51c.677-.67 1.595-1.04 2.552-1.04z" fill="#ffbe00"/><path d="m296.442 1524.3h18.049c.957 0 1.875.37 2.552 1.04.676.67 1.057 1.57 1.057 2.51s-.381 1.84-1.057 2.51c-.677.66-1.595 1.04-2.552 1.04h-4.59c-.211 0-.417.07-.581.2s-.276.32-.318.52c-.167.8-.61 1.52-1.254 2.04-.644.51-1.45.8-2.282.8-.831 0-1.637-.29-2.281-.8-.644-.52-1.087-1.24-1.254-2.04-.043-.2-.155-.39-.319-.52s-.369-.2-.581-.2h-4.589c-.957 0-1.875-.38-2.552-1.04-.677-.67-1.057-1.57-1.057-2.51s.38-1.84 1.057-2.51 1.595-1.04 2.552-1.04z" fill="#ffbe00"/><path d="m14.6087 1190.17c0 13.67 11.0826 24.76 24.7537 24.76 13.671 0 24.7536-11.09 24.7536-24.76s-11.0826-24.75-24.7536-24.75c-13.6711 0-24.7537 11.08-24.7537 24.75z" fill="#09f"/><path d="m66.8455 1308.36h-32.0316v89.13h32.0316z" fill="#ee4332"/><path d="m107.233 1348.74h-32.0319v48.75h32.0319z" fill="#666"/><path d="m147.621 1332.03h-32.032v65.46h32.032z" fill="#09f"/><path d="m90.6395 1282.12h56.5795l-56.5795-56.58z" fill="#3b579d"/><path d="m375.306 1266.2h28.29l-.191-28.29h-28.29z" fill="#ffbe00"/><path d="m378.072 1263.42-.018-2.79-.116-17.15-.019-2.78zm22.701-2.79.018 2.79-.153-22.72.019 2.78z" fill="#ffbe00" stroke="#ffbe00" stroke-width="5.57071"/><g mask="url(#e)"><path clip-rule="evenodd" d="m167.74 1169.06c-1.064.08-2.008-1.02-2.034-1.92-.029-1.02.949-2.14 2.015-2.13 1.009.01 1.902.84 1.964 2.03.051 1-1.13 2.14-1.945 2.02zm-25.004-2.04c.136 1.12-.995 2.06-1.819 2.08-1.075.03-2.052-1.01-2.096-1.88-.067-1.34 1.012-2.23 1.993-2.23.933-.01 1.95.88 1.922 2.03zm-.158 14.89c0-.07 0-.14 0-.2-.004-2.86-.005-5.71-.013-8.56-.001-.22.073-.3.282-.29.497.01.996.02 1.491-.01.408-.02.696.07.796.52.014.06.061.12.094.18.853 1.48 2.227 2.11 3.783 2.42.412.09.842.08 1.264.11.151.01.203.08.203.22.003.68.01 1.35.016 2.03.001.15-.061.22-.21.22-.54 0-1.079 0-1.619 0-.964 0-1.928-.01-2.892-.01-.113-.01-.193.02-.19.17.006.28-.009.56-.01.84-.006 1.81-.012 3.63-.013 5.44-.002 2.27-.011 4.54.009 6.81.005.59-.135 1.2.091 1.79.011.03-.012.07-.018.11-.028.15-.071.3-.081.46-.031.48-.082.53-.553.54-.724.01-1.448.01-2.171.03-.183.01-.228-.03-.229-.21-.005-1.29-.026-2.58-.028-3.87-.005-2.91-.002-5.83-.002-8.74zm13.788 1.02c-.077-.06-.116-.09-.158-.12-.696-.45-1.238-1.06-1.609-1.8-.289-.57-.444-1.2-.534-1.86-.158-1.14.024-2.22.482-3.25.614-1.38 1.669-2.26 3.078-2.67.627-.18 1.278-.29 1.924-.39 1.333-.2 2.631-.04 3.877.5.914.39 1.701.95 2.305 1.79.483.66.794 1.4 1.006 2.19.177.65.289 1.33.417 1.99.084.44.051.47-.389.49-.043 0-.087.01-.13.02-.699.04-1.398.08-2.097.12-.136 0-.223-.05-.244-.22-.039-.31-.108-.62-.17-.93-.115-.56-.308-1.1-.58-1.6-.161-.3-.346-.6-.585-.83-.237-.23-.549-.39-.838-.55-.891-.52-1.843-.54-2.778-.22-.722.25-1.407.6-1.839 1.32-.255.43-.487.85-.498 1.36-.004.2.01.39.014.58.025 1.04.504 1.83 1.327 2.39.513.35 1.088.59 1.702.65.548.06 1.105.06 1.657.05.269-.01.311-.01.316.26.012.67.023 1.34.044 2 .007.2-.067.27-.254.27-.715.01-1.43.03-2.145.03-.494 0-.956.14-1.4.33-.49.21-.884.56-1.247.96-.607.66-.858 1.46-.896 2.35-.023.53.062 1.04.259 1.55.149.39.349.73.603 1.03.398.47.879.85 1.438 1.1.467.22.954.35 1.467.41.609.06 1.212.02 1.801-.13.489-.13.975-.31 1.352-.66.32-.3.579-.67.858-1.01.356-.44.445-1 .632-1.51.108-.3.135-.63.179-.94.029-.21.124-.27.311-.25.254.03.51.04.765.04.548.02 1.095.04 1.643.06.206 0 .249.08.207.28-.065.32-.117.64-.17.95-.136.8-.288 1.59-.614 2.33-.372.85-1.004 1.48-1.68 2.05-.516.43-1.119.76-1.769.95-.538.16-1.08.34-1.633.41-.64.08-1.293.04-1.941.04-.841.01-1.64-.21-2.435-.46-.608-.2-1.183-.46-1.72-.81-.71-.46-1.277-1.06-1.675-1.83-.161-.3-.328-.62-.434-.95-.174-.54-.37-1.1-.43-1.66-.081-.75-.074-1.52.08-2.28.182-.89.511-1.71 1.056-2.42.535-.7 1.216-1.22 2.092-1.5zm-2.09-22.8c-6.351 0-12.702 0-19.053 0-.168 0-.336-.02-.504-.01-1.485.02-2.761 1.03-3.291 2.39-.082.2-.11.45-.111.68-.008 3.32-.01 6.65-.01 9.98 0 5.77.006 11.54-.002 17.3 0 .32.075.55.296.77.923.93 1.83 1.88 2.745 2.82 1.654 1.7 3.306 3.41 4.964 5.1 1.026 1.05 2.066 2.09 3.087 3.14.169.18.324.25.566.25 2.034-.01 4.068-.02 6.102-.02 1.836 0 3.672.01 5.508.01 2.355 0 4.711-.01 7.066-.01 2.333 0 4.666.01 6.999.01 1.888.01 3.775.01 5.661 0 .23 0 .469-.1.687-.19 1.027-.43 1.747-1.19 2.128-2.26.087-.24.152-.51.153-.76.01-2.12.001-4.24 0-6.35-.001-3.98 0-7.95 0-11.93 0-5.17.001-10.35.001-15.52.001-.72.021-1.44-.005-2.16-.026-.73-.336-1.35-.767-1.9-.461-.6-1.071-.96-1.761-1.21-.452-.17-.904-.13-1.362-.13-1.434.01-2.868 0-4.302 0-4.932 0-9.863 0-14.795 0z" fill="#09f" fill-rule="evenodd"/></g><path d="m219.782 1206.09v7.07h42.722v-7.07z" fill="#666"/><path d="m209.103 1183.1v7.07h62.302v-7.07z" fill="#666"/><path clip-rule="evenodd" d="m312.186 1162.15h76.731c3.077 0 5.571 2.49 5.571 5.57v6.01c0 3.07-2.494 5.57-5.571 5.57h-76.731c-3.077 0-5.571-2.5-5.571-5.57v-6.01c0-3.08 2.494-5.57 5.571-5.57zm76.731-5.57c6.153 0 11.142 4.99 11.142 11.14v6.01c0 6.15-4.989 11.14-11.142 11.14h-76.731c-6.154 0-11.142-4.99-11.142-11.14v-6.01c0-6.15 4.988-11.14 11.142-11.14z" fill="#ffbe00" fill-rule="evenodd"/><path clip-rule="evenodd" d="m444.529 1400.58v-70.73c0-12.54 10.171-22.71 22.719-22.71 12.547 0 22.719 10.17 22.719 22.71v70.73c0 12.55-10.172 22.72-22.719 22.72-12.548 0-22.719-10.17-22.719-22.72zm-5.571-70.73c0-15.62 12.666-28.29 28.29-28.29s28.29 12.67 28.29 28.29v70.73c0 15.62-12.666 28.29-28.29 28.29s-28.29-12.67-28.29-28.29z" fill="#666" fill-rule="evenodd"/><path clip-rule="evenodd" d="m636.986 1285.65 28.29 49.51h-56.579zm0 11.23 18.691 32.71h-37.381z" fill="#09f" fill-rule="evenodd"/><path clip-rule="evenodd" d="m543.478 1356.58 35.363-35.36-3.94-3.94-35.362 35.36z" fill="#ff7100" fill-rule="evenodd"/><path clip-rule="evenodd" d="m578.841 1352.64-35.363-35.36-3.939 3.94 35.362 35.36z" fill="#ff7100" fill-rule="evenodd"/><path clip-rule="evenodd" d="m647.707 1525.47c4.075-.52 9.074.77 15.652 7l3.833-4.04c-7.369-6.99-13.953-9.28-20.189-8.49-5.96.76-11.031 4.32-15.373 7.43-.131.09-.262.19-.392.28-4.434 3.18-8.128 5.82-12.078 6.59-3.662.71-8.032-.16-13.828-5.79l-3.88 4c6.709 6.51 12.839 8.41 18.767 7.26 5.188-1.01 9.811-4.33 13.873-7.25.263-.19.523-.37.781-.56 4.516-3.23 8.483-5.88 12.834-6.43z" fill="#ee4332" fill-rule="evenodd"/><path clip-rule="evenodd" d="m647.707 1543.66c4.075-.52 9.074.77 15.652 7.01l3.833-4.05c-7.369-6.98-13.953-9.28-20.189-8.48-5.96.75-11.031 4.31-15.373 7.42-.131.1-.262.19-.392.28-4.434 3.18-8.128 5.83-12.078 6.59-3.662.71-8.032-.16-13.828-5.78l-3.88 3.99c6.709 6.51 12.839 8.41 18.767 7.26 5.188-1.01 9.811-4.33 13.873-7.25.263-.19.523-.37.781-.56 4.516-3.23 8.483-5.87 12.834-6.43z" fill="#ee4332" fill-rule="evenodd"/><path clip-rule="evenodd" d="m230.294 1338.7c-5.825 0-10.582-4.77-10.582-10.61v-17.68c0-5.84 4.757-10.61 10.582-10.61h21.271c5.825 0 10.582 4.77 10.582 10.61v17.68c0 5.84-4.757 10.61-10.582 10.61zm22.124-16.18h-2.191c-.909 0-1.603-.75-1.657-1.67v-10.55c0-.91.748-1.66 1.657-1.66h2.191c.909 0 1.657.75 1.657 1.66v10.55c0 .92-.748 1.67-1.657 1.67zm-22.979 0h2.191c.909 0 1.657-.75 1.657-1.67v-10.55c0-.91-.748-1.66-1.657-1.66h-2.191c-.909 0-1.657.75-1.657 1.66v10.55c0 .92.748 1.67 1.657 1.67zm7.59 7.01c0-2.09 1.871-3.8 3.955-3.8 2.085 0 3.902 1.66 3.955 3.8v2.04c0 1.18-.962 2.09-2.084 2.09h-3.741c-1.176 0-2.085-.96-2.085-2.09z" fill="#09f" fill-rule="evenodd"/><path clip-rule="evenodd" d="m30.7891 1452.12h186.8879v96.71h-186.8879zm192.4579-5.57v107.86h-198.0286v-107.86z" fill="#666" fill-rule="evenodd"/><path d="m964.036 1574.89-14.952 15.05h29.905z" fill="#666"/><path d="m148.555 1562.71-14.952 15.06h29.904z" fill="#09f"/><path clip-rule="evenodd" d="m1331.15 1381.62 27.95-28.14-3.92-3.96-24.03 24.2-24.03-24.2-3.93 3.96z" fill="#666" fill-rule="evenodd"/><path clip-rule="evenodd" d="m1328.36 1244.34v133.5h5.57v-133.5z" fill="#666" fill-rule="evenodd"/><path clip-rule="evenodd" d="m690.029 1249.27h-144.985v5.57h144.985z" fill="#666" fill-rule="evenodd"/><path clip-rule="evenodd" d="m1381.89 1144.44-27.95 28.14 3.92 3.96 24.03-24.2 24.03 24.2 3.93-3.96z" fill="#666" fill-rule="evenodd"/><path clip-rule="evenodd" d="m1384.68 1281.72v-133.5h-5.57v133.5z" fill="#666" fill-rule="evenodd"/><path clip-rule="evenodd" d="m1133.83 1299.29c-5.68 0-10.35-4.64-10.35-10.45 0-5.8 4.67-10.45 10.35-10.45 5.67 0 10.34 4.65 10.34 10.45 0 5.81-4.67 10.45-10.34 10.45zm0 5.57c-8.79 0-15.92-7.17-15.92-16.02s7.13-16.02 15.92-16.02 15.91 7.17 15.91 16.02-7.12 16.02-15.91 16.02z" fill="#2cbe60" fill-rule="evenodd"/><path clip-rule="evenodd" d="m850.929 1183.05c-5.677 0-10.343-4.64-10.343-10.45s4.666-10.45 10.343-10.45c5.676 0 10.342 4.64 10.342 10.45s-4.666 10.45-10.342 10.45zm0 5.57c-8.789 0-15.913-7.17-15.913-16.02s7.124-16.02 15.913-16.02c8.788 0 15.913 7.17 15.913 16.02s-7.125 16.02-15.913 16.02z" fill="#2cbe60" fill-rule="evenodd"/><path clip-rule="evenodd" d="m903.971 1291.97h217.479v-5.57h-217.479z" fill="#2cbe60" fill-rule="evenodd"/><path d="m1356.67 1094.5c-.4-2.67-.08-5.57 1.44-8.6 2.32-4.66 6.87-8.11 12.14-8.75 6.41-.81 12.19 2.1 15.35 6.84.8 1.19 2.51 1.37 3.73.56 1.78-1.19 3.91-1.89 6.23-1.89 2.85 0 5.8 1.07 7.77 3.06 3.35 3.39 3.67 6.45 3.33 8.96-.16 1.14.5 2.2 1.51 2.77 4.26 2.31 7.08 6.82 6.76 11.97-.42 6.92-6.73 12.1-13.84 12.1h-39.63c-6.54 0-12.48-4.46-13.52-10.75-.98-5.99 2.29-11.27 7.3-13.65 1.03-.47 1.59-1.53 1.43-2.62z" fill="#09f"/><g clip-rule="evenodd" fill-rule="evenodd"><path d="m1278.1 1193.72c27.74 0 50.26 22.65 50.26 50.62h5.57c0-31.01-24.98-56.19-55.83-56.19z" fill="#666"/><path d="m690.03 1254.84c27.739 0 50.258 22.65 50.258 50.62h5.571c0-31.01-24.978-56.19-55.829-56.19z" fill="#666"/><path d="m903.972 1286.4c-27.756 0-50.258-22.5-50.258-50.26h-5.57c0 30.84 24.995 55.83 55.828 55.83z" fill="#2cbe60"/><path d="m611.482 1145.97c0-27.76 22.501-50.26 50.258-50.26v-5.57c-30.833 0-55.829 25-55.829 55.83z" fill="#395497"/><path d="m1045.71 1152.01h190.38c20.52 0 37.15 16.63 37.15 37.15s-16.63 37.15-37.15 37.15h-190.38c-20.52 0-37.15-16.63-37.15-37.15s16.63-37.15 37.15-37.15zm190.38-5.57c23.59 0 42.72 19.12 42.72 42.72 0 23.59-19.13 42.72-42.72 42.72h-190.38c-23.6 0-42.72-19.13-42.72-42.72 0-23.6 19.12-42.72 42.72-42.72z" fill="#666"/><path d="m705.636 1538.21v-190.39c0-20.52 16.633-37.15 37.151-37.15 20.517 0 37.15 16.63 37.15 37.15v190.39c0 20.51-16.633 37.15-37.15 37.15-20.518 0-37.151-16.64-37.151-37.15zm-5.571-190.39c0-23.59 19.127-42.72 42.722-42.72 23.594 0 42.721 19.13 42.721 42.72v190.39c0 23.59-19.127 42.72-42.721 42.72-23.595 0-42.722-19.13-42.722-42.72z" fill="#666"/><path d="m1079.05 1468.51h186.89v77.27h-186.89zm192.46-5.57v88.41h-198.03v-88.41z" fill="#606060"/><path d="m152.789 1452.12h64.888v96.71h-64.888zm70.458-5.57v107.86h-76.029v-107.86z" fill="#666"/><path d="m1172.5 1523.23c-8.61 0-15.65-7.03-15.65-15.79 0-8.75 7.04-15.79 15.65-15.79 8.6 0 15.64 7.04 15.64 15.79 0 8.76-7.04 15.79-15.64 15.79zm0 5.57c-11.72 0-21.22-9.56-21.22-21.36 0-11.79 9.5-21.36 21.22-21.36 11.71 0 21.21 9.57 21.21 21.36 0 11.8-9.5 21.36-21.21 21.36z" fill="#666"/><path d="m1223.77 1488.01 22.24 38.02h-44.48zm-12.53 32.43 12.53-21.42 12.53 21.42z" fill="#ff7100"/><path d="m1121.28 1525.77-22.25-38.03h44.49zm12.52-32.44-12.52 21.42-12.53-21.42z" fill="#ff7100"/><path d="m1097.05 1359.04 59.01 59.02v-59.02zm13.44 5.57h40v40z" fill="#ffbe00"/><path d="m754.029 1222.75 59.017 59.02v-59.02zm13.449 5.57h39.998v40z" fill="#2cbe60"/><path d="m27.335 1068.92 59.017 59.02v-59.02zm13.4489 5.58h39.9974v39.99z" fill="#3b579d"/><path d="m1008.29 1474.69c-30.612 0-55.49-24.99-55.49-55.9s24.878-55.9 55.49-55.9c30.61 0 55.49 24.99 55.49 55.9s-24.88 55.9-55.49 55.9zm0 5.57c-33.723 0-61.061-27.52-61.061-61.47s27.338-61.48 61.061-61.48c33.72 0 61.06 27.53 61.06 61.48s-27.34 61.47-61.06 61.47z" fill="#666"/></g><path d="m1082.55 1418.79c0-9.82-1.92-19.54-5.65-28.61s-9.2-17.32-16.1-24.26-15.08-12.45-24.09-16.21c-9.01-3.75-18.67-5.69-28.42-5.69v74.77z" fill="#09f"/><path clip-rule="evenodd" d="m1382.66 1324.61-10.3-10.37 10.3-10.37 10.3 10.37zm-18.15-10.37 18.15-18.28 18.15 18.28-18.15 18.27z" fill="#ee4332" fill-rule="evenodd"/><path clip-rule="evenodd" d="m608.209 1186.43-12.084-12.17 12.084-12.17 12.085 12.17zm-19.936-12.17 19.936-20.07 19.937 20.07-19.937 20.07z" fill="#bf5500" fill-rule="evenodd"/><path d="m1033.04 1269.24h-7.07v42.72h7.07z" fill="#2cbe60"/><path d="m987.073 1269.24h-7.072v42.72h7.072z" fill="#2cbe60"/><path d="m1010.06 1258.56h-7.07v62.3h7.07z" fill="#2cbe60"/><path d="m1211.62 1319.1c0-8.85-7.12-16.02-15.91-16.02s-15.91 7.17-15.91 16.02 7.12 16.02 15.91 16.02 15.91-7.17 15.91-16.02z" fill="#242424"/><path clip-rule="evenodd" d="m1195.71 1308.65c5.68 0 10.34 4.65 10.34 10.45 0 5.81-4.66 10.45-10.34 10.45-5.67 0-10.34-4.64-10.34-10.45 0-5.8 4.67-10.45 10.34-10.45zm0-5.57c8.79 0 15.91 7.17 15.91 16.02s-7.12 16.02-15.91 16.02-15.91-7.17-15.91-16.02 7.12-16.02 15.91-16.02z" fill="#09f" fill-rule="evenodd"/><path d="m1257.59 1352.92c0-8.84-7.12-16.02-15.91-16.02s-15.91 7.18-15.91 16.02c0 8.85 7.12 16.02 15.91 16.02s15.91-7.17 15.91-16.02z" fill="#242424"/><path clip-rule="evenodd" d="m1241.68 1342.47c5.68 0 10.34 4.65 10.34 10.45 0 5.81-4.66 10.45-10.34 10.45-5.67 0-10.34-4.64-10.34-10.45 0-5.8 4.67-10.45 10.34-10.45zm0-5.57c8.79 0 15.91 7.18 15.91 16.02 0 8.85-7.12 16.02-15.91 16.02s-15.91-7.17-15.91-16.02c0-8.84 7.12-16.02 15.91-16.02z" fill="#3b579d" fill-rule="evenodd"/><path d="m624.503 1384.67c-8.848 0-16.021 7.12-16.021 15.91s7.173 15.91 16.021 15.91 16.02-7.12 16.02-15.91-7.172-15.91-16.02-15.91z" fill="#242424"/><path clip-rule="evenodd" d="m614.053 1400.58c0-5.68 4.643-10.34 10.45-10.34s10.45 4.66 10.45 10.34-4.643 10.34-10.45 10.34-10.45-4.66-10.45-10.34zm-5.571 0c0-8.79 7.173-15.91 16.021-15.91s16.02 7.12 16.02 15.91-7.172 15.91-16.02 15.91-16.021-7.12-16.021-15.91z" fill="#3b579d" fill-rule="evenodd"/><path d="m428.241 1519.04c-8.848 0-16.021 7.13-16.021 15.92 0 8.78 7.173 15.91 16.021 15.91s16.02-7.13 16.02-15.91c0-8.79-7.172-15.92-16.02-15.92z" fill="#242424"/><path clip-rule="evenodd" d="m417.791 1534.96c0-5.68 4.643-10.35 10.45-10.35s10.45 4.67 10.45 10.35c0 5.67-4.643 10.34-10.45 10.34s-10.45-4.67-10.45-10.34zm-5.571 0c0-8.79 7.173-15.92 16.021-15.92s16.02 7.13 16.02 15.92c0 8.78-7.172 15.91-16.02 15.91s-16.021-7.13-16.021-15.91z" fill="#09f" fill-rule="evenodd"/><path d="m550.242 1451.86c-8.848 0-16.021 7.12-16.021 15.91s7.173 15.91 16.021 15.91 16.02-7.12 16.02-15.91-7.172-15.91-16.02-15.91z" fill="#242424"/><path clip-rule="evenodd" d="m539.792 1467.77c0-5.68 4.643-10.34 10.45-10.34 5.806 0 10.449 4.66 10.449 10.34 0 5.67-4.643 10.34-10.449 10.34-5.807 0-10.45-4.67-10.45-10.34zm-5.571 0c0-8.79 7.173-15.91 16.021-15.91s16.02 7.12 16.02 15.91-7.172 15.91-16.02 15.91-16.021-7.12-16.021-15.91z" fill="#2cbe60" fill-rule="evenodd"/><path d="m1292.85 1077.01c-8.85 0-16.02 7.13-16.02 15.92s7.17 15.91 16.02 15.91 16.02-7.12 16.02-15.91-7.17-15.92-16.02-15.92z" fill="#242424"/><path clip-rule="evenodd" d="m1282.4 1092.93c0-5.68 4.64-10.35 10.45-10.35s10.45 4.67 10.45 10.35c0 5.67-4.64 10.34-10.45 10.34s-10.45-4.67-10.45-10.34zm-5.57 0c0-8.79 7.17-15.92 16.02-15.92s16.02 7.13 16.02 15.92-7.17 15.91-16.02 15.91-16.02-7.12-16.02-15.91z" fill="#ee4332" fill-rule="evenodd"/><path d="m838.789 1349.1v-3.83c0-1.02.873-1.87 1.902-1.87h8.168c1.06 0 1.902.85 1.902 1.87v3.83z" fill="#666"/><path d="m838.258 1353.25h16.243c.717 0 1.403-.36 1.777-.99l6.11-10.03h19.547l6.08 10c.405.66 1.091 1.02 1.808 1.02h16.243c1.777 0 3.211 1.39 3.211 3.1v39.36c0 1.72-1.434 3.1-3.211 3.1h-67.839c-1.777 0-3.211-1.38-3.211-3.1v-39.39c.031-1.68 1.465-3.07 3.242-3.07zm33.888 34.95c7.919 0 14.145-6.49 14.145-14.14s-6.226-14.12-14.145-14.15c-7.918 0-14.145 6.5-14.145 14.15.031 7.65 6.227 14.14 14.145 14.14z" fill="#09f"/><path d="m930.407 1224.01v4.96h42.812v-4.96zm9.73-14.98h1.07 21.244 1.071c1.621 0 2.659 1.09 2.659 2.7v1.08 6.41h-14.335-14.336v-6.41-1.08c-.032-1.61 1.005-2.7 2.627-2.7zm-12.357-43.16 13.363-13.7c.583-.6 1.946-1.19 2.756-1.19h20.304c4.865 0 9.276 3.91 9.276 8.61v25.49c0 2.14-1.719 3.91-3.86 3.91-2.108 0-3.859-1.74-3.859-3.91v-3.05c0-.99-.779-1.81-1.752-1.81-.94 0-1.719.76-1.751 1.68v6.3c0 2.17-1.719 3.91-3.86 3.91-2.108 0-3.859-1.74-3.859-3.87v-6.24c0-.99-.779-1.81-1.752-1.81s-1.784.79-1.784 1.81v17.57c0 2.17-1.719 3.91-3.859 3.91-2.108 0-3.827-1.74-3.86-3.88 0 0 0 0 0-.03v-31.67c0-2.07-1.297-3.02-2.465-3.02-.648 0-1.135.16-1.654.69-1.881 1.9-.454.49-2.27 2.3-3.211 3.25-9.374 1.48-9.374-1.15 0-.23.033-.62.26-.85z" fill="#09f"/><path d="m873.914 1555.85v-126.38l28.504 28.85h105.872v97.53z" fill="#242424"/><path clip-rule="evenodd" d="m1011.08 1558.64h-139.951v-135.96l32.453 32.85h107.498zm-5.57-5.57v-91.97h-104.255l-24.555-24.85v116.82z" fill="#666" fill-rule="evenodd"/><path d="m916.38 1483.83h-25.069v55.71h25.069z" fill="#ee4332"/><path d="m987.406 1517.26h-25.068v22.28h25.068z" fill="#ee4332"/><path d="m952.589 1499.15h-25.068v40.39h25.068z" fill="#666"/><path d="m1024.2 1189.16c0 13.76 11.09 24.92 24.76 24.92s24.75-11.16 24.75-24.92c0-13.77-11.08-24.92-24.75-24.92s-24.76 11.15-24.76 24.92z" fill="#ee4332"/><path d="m742.62 1558.58c13.671 0 24.753-11.08 24.753-24.75s-11.082-24.75-24.753-24.75-24.754 11.08-24.754 24.75 11.083 24.75 24.754 24.75z" fill="#ee4332"/><path d="m568.95 1107.07c5.86 0 10.609-4.75 10.609-10.61s-4.749-10.61-10.609-10.61c-5.859 0-10.608 4.75-10.608 10.61s4.749 10.61 10.608 10.61z" fill="#ffbe00"/><path d="m413.357 1107.07c5.859 0 10.609-4.75 10.609-10.61s-4.75-10.61-10.609-10.61-10.608 4.75-10.608 10.61 4.749 10.61 10.608 10.61z" fill="#666"/><path d="m335.56 1107.07c5.859 0 10.609-4.75 10.609-10.61s-4.75-10.61-10.609-10.61-10.609 4.75-10.609 10.61 4.75 10.61 10.609 10.61z" fill="#2cbe60"/><path d="m545.045 1184.87c5.859 0 10.608-4.75 10.608-10.61s-4.749-10.61-10.608-10.61-10.609 4.75-10.609 10.61 4.75 10.61 10.609 10.61z" fill="#ee4332"/><path d="m545.045 1262.67c5.859 0 10.608-4.75 10.608-10.61s-4.749-10.61-10.608-10.61-10.609 4.75-10.609 10.61 4.75 10.61 10.609 10.61z" fill="#666"/><path d="m959.019 1103.96c5.859 0 10.609-4.75 10.609-10.61s-4.75-10.61-10.609-10.61-10.608 4.75-10.608 10.61 4.749 10.61 10.608 10.61z" fill="#ee4332"/><path d="m309.885 1264.43c6.836 0 12.377-5.54 12.377-12.37 0-6.84-5.541-12.38-12.377-12.38-6.835 0-12.377 5.54-12.377 12.38 0 6.83 5.542 12.37 12.377 12.37z" fill="#666"/><path d="m150.755 1511.97c6.836 0 12.377-5.54 12.377-12.38 0-6.83-5.541-12.37-12.377-12.37-6.835 0-12.376 5.54-12.376 12.37 0 6.84 5.541 12.38 12.376 12.38z" fill="#09f"/><path d="m467.248 1340.46c5.859 0 10.608-4.75 10.608-10.61 0-5.85-4.749-10.6-10.608-10.6s-10.609 4.75-10.609 10.6c0 5.86 4.75 10.61 10.609 10.61z" fill="#09f"/><path d="m885.207 1103.96c5.859 0 10.609-4.75 10.609-10.61s-4.75-10.61-10.609-10.61-10.608 4.75-10.608 10.61 4.749 10.61 10.608 10.61z" fill="#ffbe00"/><path d="m1032.83 1103.96c5.86 0 10.61-4.75 10.61-10.61s-4.75-10.61-10.61-10.61-10.61 4.75-10.61 10.61 4.75 10.61 10.61 10.61z" fill="#666"/><path clip-rule="evenodd" d="m201.648 1067.06c-5.878 0-10.644 4.84-10.644 10.81v39.27c0 5.97 4.766 10.81 10.644 10.81h68.475c5.879 0 10.644-4.84 10.644-10.81v-39.27c0-5.97-4.765-10.81-10.644-10.81zm11.354 19.45h7.884c1.1 0 2.139.11 3.118.31.98.2 1.829.56 2.548 1.06.74.49 1.32 1.16 1.739 2.01.44.84.66 1.89.66 3.17 0 1.26-.2 2.31-.6 3.17-.399.85-.949 1.53-1.649 2.04-.699.5-1.529.87-2.488 1.09-.959.2-1.999.31-3.118.31h-3.418v8.4h-4.676zm4.676 9.14h3.118c.42 0 .82-.04 1.2-.12.399-.09.749-.22 1.049-.4.32-.2.569-.47.749-.79.2-.35.3-.77.3-1.28 0-.55-.13-.98-.39-1.31-.239-.34-.559-.61-.959-.79-.38-.18-.809-.3-1.289-.34-.48-.06-.939-.09-1.379-.09h-2.399zm13.638-2.38h4.497v2.38h.06c.479-.92 1.049-1.6 1.709-2.04.659-.47 1.489-.7 2.488-.7.26 0 .52.01.779.03.26.02.5.06.72.12v4.17c-.32-.1-.64-.17-.959-.21-.3-.06-.62-.09-.96-.09-.859 0-1.539.12-2.038.36-.5.24-.89.59-1.17 1.04-.259.42-.429.94-.509 1.55s-.12 1.28-.12 2.01v6.18h-4.497zm11.771 4.2c-.419.96-.629 2.02-.629 3.2s.21 2.24.629 3.2c.42.95.99 1.77 1.709 2.46.74.67 1.599 1.19 2.578 1.56 1 .36 2.059.54 3.178.54 1.12 0 2.169-.18 3.148-.54 1-.37 1.859-.89 2.579-1.56.739-.69 1.319-1.51 1.738-2.46.42-.96.63-2.02.63-3.2s-.21-2.24-.63-3.2c-.419-.95-.999-1.76-1.738-2.43-.72-.69-1.579-1.22-2.579-1.58-.979-.37-2.028-.55-3.148-.55-1.119 0-2.178.18-3.178.55-.979.36-1.838.89-2.578 1.58-.719.67-1.289 1.48-1.709 2.43zm4.797 5.91c-.619-.69-.929-1.59-.929-2.71s.31-2.02.929-2.71c.64-.69 1.529-1.03 2.668-1.03 1.14 0 2.019.34 2.639 1.03.639.69.959 1.59.959 2.71s-.32 2.02-.959 2.71c-.62.69-1.499 1.03-2.639 1.03-1.139 0-2.028-.34-2.668-1.03z" fill="#09f" fill-rule="evenodd"/></g><path clip-rule="evenodd" d="m1198.5 380.122v-152.058h-5.57v152.058z" fill="#09f" fill-rule="evenodd"/><path clip-rule="evenodd" d="m665.278 421.539h-275.826v5.571h275.826z" fill="#2cbe60" fill-rule="evenodd"/><path clip-rule="evenodd" d="m1194.96 65.3974v-31.8261h-5.57v31.8261z" fill="#ee4332" fill-rule="evenodd"/><path clip-rule="evenodd" d="m853.717 192.702v-49.508h-5.571v49.508z" fill="#2cbe60" fill-rule="evenodd"/><path clip-rule="evenodd" d="m389.453 216.438c-1.538 0-2.786 1.247-2.786 2.785v.071c0 1.538 1.248 2.785 2.786 2.785s2.785-1.247 2.785-2.785v-.071c0-1.538-1.247-2.785-2.785-2.785zm0 17.021c-1.538 0-2.786 1.247-2.786 2.785v.142c0 1.538 1.248 2.785 2.786 2.785s2.785-1.247 2.785-2.785v-.142c0-1.538-1.247-2.785-2.785-2.785zm0 17.092c-1.538 0-2.786 1.247-2.786 2.785v.142c0 1.538 1.248 2.785 2.786 2.785s2.785-1.247 2.785-2.785v-.142c0-1.538-1.247-2.785-2.785-2.785zm0 17.092c-1.538 0-2.786 1.247-2.786 2.785v.141c0 1.539 1.248 2.786 2.786 2.786s2.785-1.247 2.785-2.786v-.141c0-1.538-1.247-2.785-2.785-2.785zm0 17.091c-1.538 0-2.786 1.248-2.786 2.786v.141c0 1.538 1.248 2.785 2.786 2.785s2.785-1.247 2.785-2.785v-.141c0-1.538-1.247-2.786-2.785-2.786zm0 17.092c-1.538 0-2.786 1.247-2.786 2.786v.141c0 1.538 1.248 2.785 2.786 2.785s2.785-1.247 2.785-2.785v-.141c0-1.539-1.247-2.786-2.785-2.786zm0 17.092c-1.538 0-2.786 1.247-2.786 2.785v.142c0 1.538 1.248 2.785 2.786 2.785s2.785-1.247 2.785-2.785v-.142c0-1.538-1.247-2.785-2.785-2.785zm0 17.092c-1.538 0-2.786 1.247-2.786 2.785v.141c0 1.539 1.248 2.786 2.786 2.786s2.785-1.247 2.785-2.786v-.141c0-1.538-1.247-2.785-2.785-2.785zm0 17.092c-1.538 0-2.786 1.247-2.786 2.785v.141c0 1.539 1.248 2.786 2.786 2.786s2.785-1.247 2.785-2.786v-.141c0-1.538-1.247-2.785-2.785-2.785zm0 17.091c-1.538 0-2.786 1.247-2.786 2.786v.141c0 1.538 1.248 2.785 2.786 2.785s2.785-1.247 2.785-2.785v-.141c0-1.539-1.247-2.786-2.785-2.786zm0 17.092c-1.538 0-2.786 1.247-2.786 2.786v.141c0 1.538 1.248 2.785 2.786 2.785s2.785-1.247 2.785-2.785v-.141c0-1.539-1.247-2.786-2.785-2.786zm0 17.092c-1.538 0-2.786 1.247-2.786 2.785v.142c0 1.538 1.248 2.785 2.786 2.785s2.785-1.247 2.785-2.785v-.142c0-1.538-1.247-2.785-2.785-2.785zm0 17.092c-1.538 0-2.786 1.247-2.786 2.785v.071c0 1.538 1.248 2.785 2.786 2.785s2.785-1.247 2.785-2.785v-.071c0-1.538-1.247-2.785-2.785-2.785z" fill="#a6a6a6" fill-rule="evenodd"/><path clip-rule="evenodd" d="m98.4639 49.4841c0 1.5383 1.247 2.7853 2.7851 2.7853h.064c1.538 0 2.785-1.247 2.785-2.7853s-1.247-2.7854-2.785-2.7854h-.064c-1.5381 0-2.7851 1.2471-2.7851 2.7854zm15.3171 0c0 1.5383 1.247 2.7853 2.785 2.7853h.127c1.538 0 2.785-1.247 2.785-2.7853s-1.247-2.7854-2.785-2.7854h-.127c-1.538 0-2.785 1.2471-2.785 2.7854zm15.38 0c0 1.5383 1.247 2.7853 2.785 2.7853h.064l.064.0001c1.538.005 2.789-1.2381 2.794-2.7764s-1.238-2.7893-2.777-2.7942l-.081-.0002h-.064c-1.538 0-2.785 1.2471-2.785 2.7854zm16.578 4.5122c-1.084 1.0913-1.078 2.8549.013 3.9391l.089.0896c1.085 1.0912 2.848 1.0969 3.939.0127 1.092-1.0842 1.097-2.8478.013-3.9391-.038-.0384-.076-.0768-.115-.115-1.091-1.0842-2.855-1.0785-3.939.0127zm8.545 14.9126c-1.539.0049-2.782 1.2559-2.777 2.7942v.0638.0636c0 1.5383 1.247 2.7853 2.786 2.7853 1.538 0 2.785-1.247 2.785-2.7853v-.0636-.0816c-.005-1.5383-1.256-2.7813-2.794-2.7764zm.009 15.3894c-1.539 0-2.786 1.2471-2.786 2.7854v.1271c0 1.5383 1.247 2.7853 2.786 2.7853 1.538 0 2.785-1.247 2.785-2.7853v-.1271c0-1.5383-1.247-2.7854-2.785-2.7854zm0 15.3803c-1.539 0-2.786 1.2474-2.786 2.7854v.064c0 1.538 1.247 2.785 2.786 2.785 1.538 0 2.785-1.247 2.785-2.785v-.064c0-1.538-1.247-2.7854-2.785-2.7854z" fill="#666" fill-rule="evenodd"/><path clip-rule="evenodd" d="m1244.47 380.122v-152.058h-5.57v152.058z" fill="#3b579d" fill-rule="evenodd"/><path clip-rule="evenodd" d="m667.048 354.351h-139.682v5.571h139.682z" fill="#3b579d" fill-rule="evenodd"/><path clip-rule="evenodd" d="m527.366 488.728h-139.681v5.57h139.681z" fill="#09f" fill-rule="evenodd"/><path clip-rule="evenodd" d="m1292.96 46.6988h-97.25v5.5707h97.25z" fill="#ee4332" fill-rule="evenodd"/><path clip-rule="evenodd" d="m850.931 46.6988h-189.188v5.5707h189.188z" fill="#395497" fill-rule="evenodd"/><path d="m450.182 208.557c1.04-1.04 1.04-2.732 0-3.772l-5.152-5.15c-.967-.967-1.04-2.539-.096-3.53.967-.992 2.564-1.016 3.531-.025l5.2 5.199c1.041 1.04 2.734 1.04 3.774 0l2.443-2.442c1.04-1.04 1.04-2.732 0-3.772l-5.152-5.15c-.968-.967-1.04-2.539-.097-3.53.968-.992 2.564-1.016 3.531-.025l5.225 5.199c1.04 1.064 2.733 1.064 3.773 0 1.379-1.354 3.048-1.306 4.137-.242l2.757 2.757c4.596 4.594 5.588 11.412 3.024 16.973-.653 1.427-.387 3.12.725 4.232l8.055 8.051c1.064 1.064 1.137 2.805.097 3.893-1.065 1.113-2.83 1.113-3.895.049l-8.103-8.1c-1.112-1.113-2.805-1.403-4.233-.726-5.563 2.587-12.408 1.572-17.004-3.022l-2.757-2.757c-1.089-1.088-1.113-2.78.217-4.11z" fill="#ff7100"/><path d="m1117.77 56.4871c2.93-2.1102 7.39-1.4812 9.7.2434.88.8116.61 1.8464-.31 2.6985l-3.23 2.9826c-.82.7507-2.16.7507-2.97 0l-3.41-3.1449c-.85-.771-.74-2.0898.22-2.7796z" fill="#ffbe00"/><path d="m1112.8 53.0784c-.74.6899-2.06.6087-2.79-.0609-.74-.6898-.85-1.9275-.11-2.6173 6.93-6.3912 18.16-6.3912 25.08 0 .77.7304.88 2.0087.09 2.7391-.81.7507-2.2.6898-2.99-.0609-5.34-4.9101-13.96-4.9101-19.28 0z" fill="#ffbe00"/><path d="m1103.4 46.9104c-.73-.6696-.62-2.029.08-2.7188 10.56-9.739 27.5-9.5767 38.05.142.77.7304.88 2.0087.11 2.7188-.79.7304-2.17.6493-2.96-.0812-8.97-8.2781-23.52-8.2781-32.49 0-.75.6899-2.05.629-2.79-.0608z" fill="#ffbe00"/><path d="m1096.63 40.6612c-.73-.6696-.82-1.9275-.09-2.5971 14.31-13.2085 37.5-13.2085 51.79 0 .77.7304.88 2.0087.08 2.7391-.81.7507-2.19.6898-2.99-.0609-12.68-11.7071-33.27-11.7274-45.96 0-.75.6899-2.09.6087-2.83-.0811z" fill="#ffbe00"/><path clip-rule="evenodd" d="m756.785 119.185c2.218-3.163 6.904-3.163 9.122 0l16.081 22.927c4.436 6.325 13.806 6.325 18.243 0l5.545-7.906c1.043-1.486 2.745-2.372 4.561-2.372h10.536v-5.57h-10.536c-3.632 0-7.036 1.77-9.122 4.743l-5.545 7.906c-2.218 3.163-6.903 3.163-9.121 0l-16.082-22.927c-4.436-6.325-13.806-6.325-18.242 0l-16.082 22.927c-2.218 3.163-6.903 3.163-9.121 0l-16.081-22.927c-4.436-6.325-13.807-6.325-18.243 0l-16.081 22.927c-2.218 3.163-6.903 3.163-9.122 0l-5.545-7.906c-2.085-2.973-5.489-4.743-9.121-4.743h-10.536v5.57h10.536c1.816 0 3.518.886 4.561 2.372l5.545 7.906c4.436 6.325 13.806 6.325 18.243 0l16.081-22.927c2.218-3.163 6.903-3.163 9.121 0l16.081 22.927c4.437 6.325 13.807 6.325 18.243 0z" fill="#666" fill-rule="evenodd"/><path clip-rule="evenodd" d="m463.511 129.732-76.028 76.029 3.939 3.939 76.028-76.029z" fill="#ffbe00" fill-rule="evenodd"/><path d="m240.931 83.0783c16.601 0 30.058-13.4574 30.058-30.0579 0-16.6006-13.457-30.058-30.058-30.058s-30.058 13.4574-30.058 30.058c0 16.6005 13.457 30.0579 30.058 30.0579z" fill="#242424"/><path clip-rule="evenodd" d="m265.418 53.0204c0 13.5239-10.963 24.4872-24.487 24.4872s-24.487-10.9633-24.487-24.4872c0-13.524 10.963-24.4873 24.487-24.4873s24.487 10.9633 24.487 24.4873zm5.571 0c0 16.6005-13.457 30.0579-30.058 30.0579s-30.058-13.4574-30.058-30.0579c0-16.6006 13.457-30.058 30.058-30.058s30.058 13.4574 30.058 30.058z" fill="#666" fill-rule="evenodd"/><path clip-rule="evenodd" d="m238.146 79.542v127.304h5.57v-127.304z" fill="#666" fill-rule="evenodd"/><path d="m313.424 205.079v173.275l-30.004-30.269h-111.445v-143.006z" fill="#242424"/><path clip-rule="evenodd" d="m285.742 342.514 22.112 22.307v-154.172h-130.308v131.865zm-113.767-137.435h141.449v173.275l-30.004-30.269h-111.445z" fill="#666" fill-rule="evenodd"/><path d="m444.782 48.2339 19.449-19.4496c.332-.3315.781-.5177 1.25-.5177s.919.1862 1.25.5177l19.45 19.4496c.247.2473.416.5623.484.9052.068.343.033.6984-.101 1.0215-.134.323-.36.5991-.651.7934s-.632.2981-.982.2981h-2.21c-.117 0-.23.0466-.313.1295s-.129.1953-.129.3126v17.2394c0 .4689-.187.9187-.518 1.2503-.332.3316-.781.5179-1.25.5179h-10.167c-.117 0-.23-.0466-.313-.1295s-.129-.1953-.129-.3126v-8.3987c0-1.1723-.466-2.2967-1.295-3.1257-.829-.8289-1.953-1.2946-3.126-1.2946-1.172 0-2.296.4657-3.125 1.2946-.829.829-1.295 1.9534-1.295 3.1257v8.3987c0 .1173-.047.2297-.129.3126-.083.0829-.196.1295-.313.1295h-10.167c-.469 0-.919-.1863-1.25-.5179-.332-.3316-.518-.7814-.518-1.2503v-17.2394c0-.1173-.047-.2297-.13-.3126-.082-.0829-.195-.1295-.312-.1295h-2.21c-.35 0-.692-.1038-.982-.2981-.291-.1943-.518-.4704-.651-.7934-.134-.3231-.169-.6785-.101-1.0215.068-.3429.236-.6579.484-.9052zm20.699 1.2501c.875 0 1.729-.2593 2.456-.745s1.294-1.1761 1.628-1.9838c.335-.8077.422-1.6965.252-2.554-.171-.8574-.592-1.6451-1.21-2.2633s-1.406-1.0392-2.263-1.2097c-.858-.1706-1.747-.083-2.554.2515-.808.3346-1.498.9012-1.984 1.6281s-.745 1.5816-.745 2.4558c0 .5805.114 1.1553.336 1.6916.223.5363.548 1.0236.959 1.4341.41.4105.897.7361 1.434.9582.536.2222 1.111.3365 1.691.3365z" fill="#ffbe00"/><path d="m226.779 51.7146c-1.212.4487-1.212 2.1636 0 2.6123l8.776 3.2471c.381.1411.682.4416.823.8228l3.247 8.7753c.448 1.2125 2.163 1.2125 2.612 0l3.247-8.7753c.141-.3812.442-.6817.823-.8228l8.775-3.2471c1.213-.4487 1.213-2.1636 0-2.6123l-8.775-3.2471c-.381-.1411-.682-.4417-.823-.8229l-3.247-8.7753c-.449-1.2125-2.164-1.2125-2.612 0l-3.247 8.7753c-.141.3812-.442.6818-.823.8229z" fill="#3b579d"/><path d="m465.482 144.963c8.789 0 15.913-7.125 15.913-15.913 0-8.789-7.124-15.913-15.913-15.913-8.788 0-15.913 7.124-15.913 15.913 0 8.788 7.125 15.913 15.913 15.913z" fill="#09f"/><path clip-rule="evenodd" d="m475.825 129.05c0 5.712-4.631 10.342-10.343 10.342s-10.342-4.63-10.342-10.342 4.63-10.343 10.342-10.343 10.343 4.631 10.343 10.343zm5.57 0c0 8.788-7.124 15.913-15.913 15.913-8.788 0-15.913-7.125-15.913-15.913 0-8.789 7.125-15.913 15.913-15.913 8.789 0 15.913 7.124 15.913 15.913z" fill="#09f" fill-rule="evenodd"/><path d="m305.47 422.3c6.191.107 12.098 2.574 16.475 6.88 4.377 4.305 6.883 10.113 6.989 16.2.077 4.542-1.247 9-3.797 12.788-2.55 3.787-6.206 6.728-10.488 8.433-.107.04-.22.061-.334.062h-5.228c-.244 0-.477-.095-.649-.265-.172-.169-.269-.398-.269-.638v-11.818c.001-.24.099-.469.272-.639l6.164-6.053c.447-.51.682-1.168.656-1.841s-.31-1.311-.796-1.786c-.485-.476-1.135-.753-1.82-.775-.684-.023-1.352.21-1.869.651l-4.656 4.577c-.085.085-.186.152-.298.198-.111.046-.231.069-.352.069-.12 0-.24-.023-.352-.069-.111-.046-.212-.113-.297-.198l-4.656-4.577c-.514-.469-1.193-.725-1.894-.712-.701.012-1.371.292-1.867.78-.496.487-.78 1.145-.793 1.835s.247 1.357.725 1.862l6.157 6.054c.173.169.27.399.272.639v11.818c0 .239-.097.469-.269.638s-.406.264-.649.264h-5.232c-.113 0-.225-.021-.33-.061-4.281-1.707-7.936-4.648-10.484-8.436-2.549-3.787-3.872-8.245-3.795-12.786.103-6.089 2.608-11.901 6.985-16.209 4.378-4.309 10.286-6.777 16.479-6.885z" fill="#ffbe00"/><path d="m309.076 408.424v6.775c0 .941-.381 1.844-1.057 2.509-.677.666-1.595 1.039-2.552 1.039s-1.875-.373-2.552-1.039c-.677-.665-1.057-1.568-1.057-2.509v-6.775c0-.941.38-1.844 1.057-2.509.677-.666 1.595-1.04 2.552-1.04s1.875.374 2.552 1.04c.676.665 1.057 1.568 1.057 2.509z" fill="#ffbe00"/><path d="m336.905 440.045h8.272c.957 0 1.875.374 2.552 1.039.677.666 1.057 1.568 1.057 2.509s-.38 1.844-1.057 2.509c-.677.666-1.595 1.04-2.552 1.04h-8.272c-.957 0-1.875-.374-2.551-1.04-.677-.665-1.058-1.568-1.058-2.509s.381-1.843 1.058-2.509c.676-.665 1.594-1.039 2.551-1.039z" fill="#ffbe00"/><path d="m326.396 421.563 6.876-6.776c.681-.648 1.593-1.007 2.54-1 .948.008 1.854.381 2.524 1.039.67.659 1.049 1.55 1.057 2.482.007.931-.358 1.828-1.017 2.497l-6.892 6.775c-.688.603-1.585.925-2.507.898s-1.799-.399-2.45-1.041-1.027-1.505-1.052-2.412c-.024-.906.305-1.787.921-2.462z" fill="#ffbe00"/><path d="m265.758 440.045h8.271c.957 0 1.875.374 2.552 1.039.677.666 1.057 1.568 1.057 2.509s-.38 1.844-1.057 2.509c-.677.666-1.595 1.04-2.552 1.04h-8.271c-.958 0-1.876-.374-2.552-1.04-.677-.665-1.057-1.568-1.057-2.509s.38-1.843 1.057-2.509c.676-.665 1.594-1.039 2.552-1.039z" fill="#ffbe00"/><path d="m272.563 414.787c.676-.665 1.594-1.038 2.551-1.038s1.875.373 2.552 1.038l6.876 6.776c.344.327.618.719.807 1.152.188.432.287.897.291 1.368s-.088.937-.269 1.373c-.182.436-.45.831-.788 1.164-.339.333-.741.596-1.184.775-.443.178-.918.268-1.396.264-.479-.003-.952-.101-1.392-.286-.441-.185-.839-.455-1.172-.793l-6.891-6.775c-.675-.667-1.052-1.571-1.049-2.512.002-.941.385-1.842 1.064-2.506z" fill="#ffbe00"/><path d="m296.445 471.066h18.048c.957 0 1.875.374 2.552 1.039.677.666 1.057 1.568 1.057 2.509s-.38 1.844-1.057 2.509c-.677.666-1.595 1.04-2.552 1.04h-18.048c-.957 0-1.875-.374-2.552-1.04-.677-.665-1.057-1.568-1.057-2.509s.38-1.843 1.057-2.509c.677-.665 1.595-1.039 2.552-1.039z" fill="#ffbe00"/><path d="m296.445 480.858h18.048c.957 0 1.875.374 2.552 1.04.677.665 1.057 1.568 1.057 2.509s-.38 1.843-1.057 2.509c-.677.665-1.595 1.039-2.552 1.039h-4.589c-.212-.001-.417.071-.581.203-.164.131-.277.315-.318.519-.167.801-.61 1.52-1.254 2.037-.645.517-1.451.799-2.282.799s-1.637-.282-2.282-.799c-.644-.517-1.087-1.236-1.254-2.037-.042-.204-.155-.387-.318-.519-.164-.131-.369-.203-.581-.203h-4.589c-.957 0-1.875-.374-2.552-1.039-.677-.666-1.057-1.568-1.057-2.509s.38-1.844 1.057-2.509c.677-.666 1.595-1.04 2.552-1.04z" fill="#ffbe00"/><path d="m14.6119 146.731c0 13.671 11.0826 24.753 24.7536 24.753 13.6711 0 24.7536-11.082 24.7536-24.753s-11.0825-24.754-24.7536-24.754c-13.671 0-24.7536 11.083-24.7536 24.754z" fill="#09f"/><path d="m66.8477 264.913h-32.0316v89.131h32.0316z" fill="#ee4332"/><path d="m107.236 305.3h-32.0317v48.744h32.0317z" fill="#666"/><path d="m147.624 288.588h-32.032v65.456h32.032z" fill="#09f"/><path d="m90.6415 238.672h56.5795l-56.5795-56.579z" fill="#3b579d"/><path d="m375.308 222.759h28.289l-.19-28.289h-28.29z" fill="#ffbe00"/><path clip-rule="evenodd" d="m397.989 217.189h-17.148l-.116-17.148h17.149zm-22.681 5.57-.191-28.289h28.29l.19 28.289z" fill="#ffbe00" fill-rule="evenodd"/><path d="m380.841 217.189.037 5.57h-5.57l-.038-5.57zm17.148 0h5.571l.037 5.57h-5.57zm-17.264-17.148h-5.57l-.038-5.571h5.571zm17.149 0-.038-5.571h5.571l.037 5.571zm-22.566 22.718.037 5.571h-5.571l-.037-5.571zm-.191-28.289h-5.571l-.037-5.571h5.571zm28.29 0-.038-5.571h5.571l.038 5.571zm.19 28.289h5.571l.038 5.571h-5.571zm-22.794-11.141h17.149l.075 11.141h-17.149zm5.493-11.577.116 17.148h-11.142l-.115-17.148zm11.615 5.57h-17.148l-.075-11.141h17.148zm-5.492 11.578-.116-17.148h11.141l.116 17.148zm-17.149 0h28.29l.075 11.141h-28.29zm5.418-22.719.19 28.289h-11.141l-.191-28.289zm22.756 5.571h-28.289l-.075-11.142h28.289zm-5.417 22.718-.191-28.289h11.142l.19 28.289z" fill="#ffbe00" mask="url(#f)"/><g mask="url(#g)"><path clip-rule="evenodd" d="m167.742 125.615c-1.064.08-2.007-1.019-2.033-1.915-.03-1.018.948-2.138 2.014-2.131 1.009.007 1.903.835 1.964 2.03.051 1.003-1.129 2.141-1.945 2.016zm-25.004-2.036c.136 1.119-.994 2.056-1.818 2.077-1.076.027-2.052-1.012-2.096-1.88-.068-1.339 1.011-2.228 1.993-2.231.933-.003 1.949.879 1.921 2.034zm-.158 14.887c0-.068 0-.135 0-.203-.003-2.853-.005-5.706-.013-8.559 0-.216.074-.295.282-.291.497.01.996.029 1.492-.002.408-.025.696.071.796.517.014.063.06.119.094.177.852 1.479 2.227 2.112 3.782 2.427.412.083.842.077 1.264.103.152.009.203.078.204.226.002.675.009 1.351.015 2.026.002.147-.06.222-.21.222-.539-.003-1.079 0-1.619-.002-.964-.004-1.928-.011-2.891-.014-.113-.001-.194.029-.19.179.006.277-.01.554-.011.831-.005 1.816-.011 3.633-.013 5.449-.001 2.267-.01 4.534.01 6.801.005.597-.136 1.207.09 1.794.011.029-.011.071-.018.108-.028.153-.07.306-.081.46-.031.478-.081.534-.553.541-.724.011-1.448.01-2.171.036-.183.006-.227-.038-.228-.215-.006-1.291-.027-2.581-.029-3.871-.005-2.913-.001-5.827-.002-8.74zm13.789 1.018c-.077-.056-.116-.088-.159-.116-.695-.449-1.237-1.059-1.609-1.798-.288-.575-.443-1.205-.534-1.858-.158-1.143.025-2.221.483-3.254.613-1.383 1.669-2.258 3.077-2.666.628-.182 1.278-.293 1.924-.391 1.333-.203 2.631-.041 3.877.496.915.394 1.701.952 2.305 1.786.483.668.795 1.408 1.007 2.192.176.655.289 1.328.417 1.996.083.439.05.469-.389.486-.044.001-.087.014-.131.016-.699.042-1.398.086-2.097.122-.136.007-.222-.049-.244-.22-.038-.31-.107-.617-.17-.924-.114-.566-.307-1.106-.58-1.608-.161-.297-.346-.599-.584-.829-.238-.229-.55-.382-.839-.549-.89-.516-1.842-.541-2.778-.22-.721.249-1.406.607-1.838 1.326-.255.425-.488.846-.498 1.358-.004.194.009.389.014.583.025 1.04.504 1.822 1.327 2.385.512.351 1.088.587 1.701.654.548.06 1.105.061 1.657.046.27-.007.311-.013.316.264.012.667.023 1.334.045 2.001.006.199-.068.264-.255.265-.715.007-1.43.034-2.145.034-.493 0-.955.135-1.4.325-.489.21-.884.564-1.247.96-.607.662-.858 1.466-.895 2.348-.023.533.062 1.046.258 1.557.15.386.349.725.604 1.028.397.472.878.849 1.438 1.103.467.212.954.35 1.466.402.61.061 1.212.026 1.801-.13.489-.129.976-.308 1.352-.659.32-.299.58-.667.859-1.01.355-.437.444-.997.631-1.509.108-.296.136-.626.18-.943.028-.204.124-.261.311-.243.254.025.51.033.765.042.547.019 1.095.032 1.642.051.206.007.249.087.207.289-.065.315-.116.633-.17.95-.135.795-.287 1.583-.614 2.328-.372.848-1.004 1.474-1.679 2.045-.516.436-1.12.76-1.769.954-.538.162-1.081.342-1.633.408-.64.076-1.294.038-1.941.045-.841.009-1.641-.211-2.435-.465-.608-.195-1.184-.462-1.721-.809-.709-.459-1.277-1.065-1.674-1.827-.162-.308-.329-.62-.434-.951-.175-.545-.37-1.098-.431-1.662-.081-.754-.073-1.517.081-2.279.181-.894.51-1.713 1.055-2.421.536-.696 1.217-1.22 2.093-1.504zm-2.091-22.793c-6.351 0-12.702 0-19.053-.001-.168 0-.336-.02-.504-.017-1.484.027-2.76 1.037-3.29 2.391-.082.209-.11.452-.111.679-.009 3.328-.011 6.655-.01 9.983 0 5.768.006 11.537-.002 17.306-.001.317.074.545.295.768.924.931 1.831 1.881 2.745 2.821 1.654 1.701 3.307 3.403 4.965 5.1 1.026 1.049 2.066 2.084 3.087 3.138.169.174.324.25.566.249 2.033-.015 4.067-.016 6.101-.016 1.836 0 3.672.01 5.508.01 2.356-.001 4.711-.01 7.067-.01 2.333 0 4.666.008 6.999.011 1.887.001 3.774.007 5.661-.008.23-.002.468-.098.686-.19 1.028-.432 1.747-1.183 2.129-2.256.086-.241.152-.507.153-.762.009-2.118 0-4.236 0-6.354-.001-3.974 0-7.947 0-11.921 0-5.175 0-10.35.001-15.526 0-.721.021-1.443-.005-2.163-.026-.722-.336-1.343-.768-1.899-.46-.593-1.07-.953-1.761-1.206-.452-.167-.903-.129-1.362-.128-1.434.004-2.868.002-4.302.002-4.931 0-9.863 0-14.795 0z" fill="#09f" fill-rule="evenodd"/></g><path d="m219.785 116.672v7.073h42.721v-7.073z" fill="#666"/><path d="m219.785 162.644v7.072h42.721v-7.072z" fill="#666"/><path d="m209.104 139.658v7.073h62.303v-7.073z" fill="#666"/><g clip-rule="evenodd" fill-rule="evenodd"><path d="m312.188 118.707h76.732c3.076 0 5.571 2.495 5.571 5.571v6.007c0 3.077-2.495 5.571-5.571 5.571h-76.732c-3.076 0-5.57-2.494-5.57-5.571v-6.007c0-3.076 2.494-5.571 5.57-5.571zm76.732-5.57c6.153 0 11.141 4.988 11.141 11.141v6.007c0 6.153-4.988 11.142-11.141 11.142h-76.732c-6.153 0-11.141-4.989-11.141-11.142v-6.007c0-6.153 4.988-11.141 11.141-11.141z" fill="#ffbe00"/><path d="m444.531 357.136v-70.725c0-12.547 10.172-22.719 22.72-22.719 12.547 0 22.719 10.172 22.719 22.719v70.725c0 12.547-10.172 22.719-22.719 22.719-12.548 0-22.72-10.172-22.72-22.719zm-5.57-70.725c0-15.624 12.665-28.289 28.29-28.289 15.624 0 28.289 12.665 28.289 28.289v70.725c0 15.624-12.665 28.29-28.289 28.29-15.625 0-28.29-12.666-28.29-28.29z" fill="#666"/><path d="m636.989 242.209 28.29 49.507h-56.58zm0 11.228 18.691 32.708h-37.381z" fill="#09f"/><path d="m543.48 313.135 35.362-35.362-3.939-3.94-35.362 35.363z" fill="#ff7100"/><path d="m578.842 309.196-35.362-35.363-3.939 3.94 35.362 35.362z" fill="#ff7100"/><path d="m647.71 482.027c4.075-.519 9.074.765 15.652 7.004l3.833-4.043c-7.369-6.988-13.953-9.282-20.189-8.488-5.96.759-11.031 4.32-15.373 7.428-.131.094-.262.187-.392.28-4.434 3.177-8.128 5.822-12.078 6.588-3.662.709-8.032-.16-13.828-5.785l-3.88 3.997c6.709 6.512 12.839 8.405 18.767 7.257 5.188-1.005 9.811-4.328 13.873-7.247.262-.189.523-.376.781-.561 4.516-3.232 8.483-5.876 12.834-6.43z" fill="#ee4332"/><path d="m647.71 500.219c4.075-.518 9.074.766 15.652 7.004l3.833-4.042c-7.369-6.988-13.953-9.282-20.189-8.488-5.96.759-11.031 4.319-15.373 7.428-.131.094-.262.187-.392.28-4.434 3.176-8.128 5.822-12.078 6.587-3.662.71-8.032-.159-13.828-5.784l-3.88 3.997c6.709 6.511 12.839 8.405 18.767 7.257 5.188-1.005 9.811-4.328 13.873-7.247.262-.189.523-.376.781-.561 4.516-3.232 8.483-5.877 12.834-6.431z" fill="#ee4332"/><path d="m230.294 295.253c-5.825 0-10.582-4.769-10.582-10.609v-17.681c0-5.84 4.757-10.609 10.582-10.609h21.271c5.826 0 10.582 4.769 10.582 10.609v17.681c0 5.84-4.756 10.609-10.582 10.609zm22.125-16.18h-2.192c-.908 0-1.603-.751-1.656-1.661v-10.556c0-.91.748-1.661 1.656-1.661h2.192c.908 0 1.656.751 1.656 1.661v10.556c0 .91-.748 1.661-1.656 1.661zm-22.98 0h2.191c.909 0 1.657-.751 1.657-1.661v-10.556c0-.91-.748-1.661-1.657-1.661h-2.191c-.908 0-1.656.751-1.656 1.661v10.556c0 .91.748 1.661 1.656 1.661zm7.591 7.018c0-2.09 1.87-3.804 3.955-3.804 2.084 0 3.901 1.661 3.955 3.804v2.036c0 1.179-.962 2.09-2.085 2.09h-3.741c-1.176 0-2.084-.965-2.084-2.09z" fill="#09f"/><path d="m30.7913 408.678h186.8877v96.714h-186.8877zm192.4587-5.571v107.855h-198.0294v-107.855z" fill="#666"/><path d="m1331.15 338.178 27.95-28.145-3.92-3.952-24.03 24.193-24.03-24.193-3.93 3.952z" fill="#666"/><path d="m1328.36 200.897v133.504h5.57v-133.504z" fill="#666"/><path d="m690.033 205.83h-144.986v5.57h144.986z" fill="#666"/><path d="m1381.89 100.997-27.95 28.144 3.92 3.953 24.03-24.193 24.03 24.193 3.93-3.953z" fill="#666"/><path d="m1384.68 238.279v-133.505h-5.57v133.505z" fill="#666"/><path d="m1133.83 255.849c-5.68 0-10.34-4.643-10.34-10.45s4.66-10.45 10.34-10.45 10.34 4.643 10.34 10.45-4.66 10.45-10.34 10.45zm0 5.571c-8.79 0-15.91-7.173-15.91-16.021s7.12-16.021 15.91-16.021 15.91 7.173 15.91 16.021-7.12 16.021-15.91 16.021z" fill="#2cbe60"/><path d="m850.93 139.607c-5.676 0-10.342-4.643-10.342-10.45 0-5.806 4.666-10.45 10.342-10.45 5.677 0 10.343 4.644 10.343 10.45 0 5.807-4.666 10.45-10.343 10.45zm0 5.571c-8.788 0-15.913-7.173-15.913-16.021s7.125-16.02 15.913-16.02c8.789 0 15.914 7.172 15.914 16.02s-7.125 16.021-15.914 16.021z" fill="#2cbe60"/><path d="m903.974 248.531h217.476v-5.571h-217.476z" fill="#2cbe60"/></g><path d="m1356.68 51.058c-.4-2.6678-.08-5.5687 1.43-8.5991 2.32-4.6622 6.87-8.1071 12.14-8.7546 6.41-.8029 12.19 2.098 15.36 6.8379.79 1.1914 2.5 1.3728 3.72.5698 1.79-1.1914 3.91-1.8908 6.23-1.8908 2.85 0 5.8 1.062 7.77 3.0564 3.35 3.393 3.67 6.4493 3.33 8.9617-.16 1.1397.5 2.2016 1.52 2.7715 4.25 2.3052 7.07 6.8119 6.76 11.9663-.43 6.9155-6.74 12.0958-13.84 12.0958h-39.63c-6.55 0-12.49-4.455-13.52-10.749-.99-5.9831 2.29-11.267 7.29-13.6499 1.04-.4662 1.6-1.5281 1.44-2.616z" fill="#09f"/><path clip-rule="evenodd" d="m1278.1 150.28c27.74 0 50.26 22.645 50.26 50.617h5.57c0-31.014-24.97-56.187-55.83-56.187z" fill="#666" fill-rule="evenodd"/><path clip-rule="evenodd" d="m690.032 211.4c27.739 0 50.258 22.644 50.258 50.617h5.571c0-31.014-24.978-56.188-55.829-56.188z" fill="#666" fill-rule="evenodd"/><path clip-rule="evenodd" d="m903.975 242.96c-27.757 0-50.258-22.502-50.258-50.258h-5.571c0 30.833 24.995 55.828 55.829 55.828z" fill="#2cbe60" fill-rule="evenodd"/><path clip-rule="evenodd" d="m611.485 102.528c0-27.757 22.501-50.2583 50.258-50.2583v-5.5707c-30.833 0-55.829 24.9954-55.829 55.829z" fill="#395497" fill-rule="evenodd"/><path clip-rule="evenodd" d="m1045.71 108.564h190.38c20.52 0 37.15 16.633 37.15 37.151s-16.63 37.151-37.15 37.151h-190.38c-20.52 0-37.15-16.633-37.15-37.151s16.63-37.151 37.15-37.151zm190.38-5.57c23.6 0 42.72 19.127 42.72 42.721 0 23.595-19.12 42.722-42.72 42.722h-190.38c-23.59 0-42.72-19.127-42.72-42.722 0-23.594 19.13-42.721 42.72-42.721z" fill="#666" fill-rule="evenodd"/><path clip-rule="evenodd" d="m705.639 494.763v-190.383c0-20.518 16.633-37.151 37.15-37.151 20.518 0 37.151 16.633 37.151 37.151v190.383c0 20.518-16.633 37.151-37.151 37.151-20.517 0-37.15-16.633-37.15-37.151zm-5.571-190.383c0-23.595 19.127-42.722 42.721-42.722 23.595 0 42.722 19.127 42.722 42.722v190.383c0 23.594-19.127 42.721-42.722 42.721-23.594 0-42.721-19.127-42.721-42.721z" fill="#666" fill-rule="evenodd"/><path clip-rule="evenodd" d="m1110.37 414.633h186.89v77.265h-186.89zm192.46-5.571v88.406h-198.03v-88.406z" fill="#606060" fill-rule="evenodd"/><path clip-rule="evenodd" d="m152.791 408.678h64.888v96.714h-64.888zm70.459-5.571v107.855h-76.029v-107.855z" fill="#666" fill-rule="evenodd"/><path clip-rule="evenodd" d="m1203.81 469.354c-8.6 0-15.64-7.034-15.64-15.79s7.04-15.79 15.64-15.79c8.61 0 15.65 7.034 15.65 15.79s-7.04 15.79-15.65 15.79zm0 5.571c-11.71 0-21.21-9.564-21.21-21.361s9.5-21.361 21.21-21.361c11.72 0 21.22 9.564 21.22 21.361s-9.5 21.361-21.22 21.361z" fill="#666" fill-rule="evenodd"/><path clip-rule="evenodd" d="m1255.09 434.126 22.24 38.026h-44.48zm-12.53 32.436 12.53-21.421 12.53 21.421z" fill="#ff7100" fill-rule="evenodd"/><path clip-rule="evenodd" d="m1152.59 471.885-22.24-38.026h44.48zm12.53-32.436-12.53 21.421-12.53-21.421z" fill="#ff7100" fill-rule="evenodd"/><path clip-rule="evenodd" d="m1097.05 315.596 59.01 59.017v-59.017zm13.45 5.571h39.99v39.997z" fill="#ffbe00" fill-rule="evenodd"/><path clip-rule="evenodd" d="m754.033 179.308 59.017 59.017v-59.017zm13.449 5.57h39.997v39.998z" fill="#2cbe60" fill-rule="evenodd"/><path clip-rule="evenodd" d="m27.3364 25.4814 59.0171 59.0171v-59.0171zm13.4489 5.5708h39.9974v39.9974z" fill="#3b579d" fill-rule="evenodd"/><path clip-rule="evenodd" d="m1008.29 431.247c-30.609 0-55.488-24.993-55.488-55.903 0-30.909 24.879-55.902 55.488-55.902 30.61 0 55.49 24.993 55.49 55.902 0 30.91-24.88 55.903-55.49 55.903zm0 5.57c-33.721 0-61.059-27.522-61.059-61.473 0-33.95 27.338-61.472 61.059-61.472 33.72 0 61.06 27.522 61.06 61.472 0 33.951-27.34 61.473-61.06 61.473z" fill="#666" fill-rule="evenodd"/><path d="m1082.55 375.345c0-9.818-1.92-19.541-5.65-28.611-3.73-9.071-9.2-17.313-16.1-24.256-6.89-6.942-15.08-12.449-24.09-16.207-9.01-3.757-18.67-5.691-28.42-5.691v74.765z" fill="#09f"/><path clip-rule="evenodd" d="m1382.66 281.167-10.3-10.371 10.3-10.371 10.3 10.371zm-18.15-10.371 18.15-18.275 18.16 18.275-18.16 18.275z" fill="#ee4332" fill-rule="evenodd"/><path clip-rule="evenodd" d="m608.212 142.984-12.085-12.167 12.085-12.166 12.085 12.166zm-19.937-12.167 19.937-20.071 19.936 20.071-19.936 20.072z" fill="#bf5500" fill-rule="evenodd"/><path d="m1033.05 225.794h-7.08v42.721h7.08z" fill="#2cbe60"/><path d="m987.075 225.794h-7.072v42.721h7.072z" fill="#2cbe60"/><path d="m1010.06 215.114h-7.07v62.302h7.07z" fill="#2cbe60"/><path d="m1211.63 275.66c0-8.848-7.13-16.021-15.92-16.021-8.78 0-15.91 7.173-15.91 16.021s7.13 16.02 15.91 16.02c8.79 0 15.92-7.172 15.92-16.02z" fill="#242424"/><path clip-rule="evenodd" d="m1195.71 265.21c5.68 0 10.35 4.643 10.35 10.45 0 5.806-4.67 10.449-10.35 10.449-5.67 0-10.34-4.643-10.34-10.449 0-5.807 4.67-10.45 10.34-10.45zm0-5.571c8.79 0 15.92 7.173 15.92 16.021s-7.13 16.02-15.92 16.02c-8.78 0-15.91-7.172-15.91-16.02s7.13-16.021 15.91-16.021z" fill="#09f" fill-rule="evenodd"/><path d="m1257.6 309.481c0-8.848-7.13-16.021-15.92-16.021-8.78 0-15.91 7.173-15.91 16.021s7.13 16.02 15.91 16.02c8.79 0 15.92-7.172 15.92-16.02z" fill="#242424"/><path clip-rule="evenodd" d="m1241.68 299.031c5.68 0 10.35 4.643 10.35 10.45s-4.67 10.45-10.35 10.45c-5.67 0-10.34-4.643-10.34-10.45s4.67-10.45 10.34-10.45zm0-5.571c8.79 0 15.92 7.173 15.92 16.021s-7.13 16.02-15.92 16.02c-8.78 0-15.91-7.172-15.91-16.02s7.13-16.021 15.91-16.021z" fill="#3b579d" fill-rule="evenodd"/><path d="m624.505 341.223c-8.848 0-16.021 7.125-16.021 15.913 0 8.789 7.173 15.913 16.021 15.913 8.847 0 16.02-7.124 16.02-15.913 0-8.788-7.173-15.913-16.02-15.913z" fill="#242424"/><path clip-rule="evenodd" d="m614.055 357.136c0-5.676 4.643-10.342 10.45-10.342 5.806 0 10.449 4.666 10.449 10.342 0 5.677-4.643 10.343-10.449 10.343-5.807 0-10.45-4.666-10.45-10.343zm-5.571 0c0-8.788 7.173-15.913 16.021-15.913 8.847 0 16.02 7.125 16.02 15.913 0 8.789-7.173 15.913-16.02 15.913-8.848 0-16.021-7.124-16.021-15.913z" fill="#3b579d" fill-rule="evenodd"/><path d="m428.244 475.6c-8.848 0-16.021 7.125-16.021 15.913 0 8.789 7.173 15.913 16.021 15.913s16.02-7.124 16.02-15.913c0-8.788-7.172-15.913-16.02-15.913z" fill="#242424"/><path clip-rule="evenodd" d="m417.794 491.513c0-5.676 4.643-10.342 10.45-10.342 5.806 0 10.449 4.666 10.449 10.342 0 5.677-4.643 10.343-10.449 10.343-5.807 0-10.45-4.666-10.45-10.343zm-5.571 0c0-8.788 7.173-15.913 16.021-15.913s16.02 7.125 16.02 15.913c0 8.789-7.172 15.913-16.02 15.913s-16.021-7.124-16.021-15.913z" fill="#09f" fill-rule="evenodd"/><path d="m550.244 408.412c-8.848 0-16.02 7.124-16.02 15.913 0 8.788 7.172 15.913 16.02 15.913s16.021-7.125 16.021-15.913c0-8.789-7.173-15.913-16.021-15.913z" fill="#242424"/><path clip-rule="evenodd" d="m539.794 424.325c0-5.677 4.644-10.343 10.45-10.343 5.807 0 10.45 4.666 10.45 10.343 0 5.676-4.643 10.342-10.45 10.342-5.806 0-10.45-4.666-10.45-10.342zm-5.57 0c0-8.789 7.172-15.913 16.02-15.913s16.021 7.124 16.021 15.913c0 8.788-7.173 15.913-16.021 15.913s-16.02-7.125-16.02-15.913z" fill="#2cbe60" fill-rule="evenodd"/><path d="m1292.85 33.5709c-8.85 0-16.02 7.1245-16.02 15.913 0 8.7886 7.17 15.9131 16.02 15.9131s16.02-7.1245 16.02-15.9131c0-8.7885-7.17-15.913-16.02-15.913z" fill="#242424"/><path clip-rule="evenodd" d="m1282.4 49.4839c0-5.6766 4.65-10.3423 10.45-10.3423 5.81 0 10.45 4.6657 10.45 10.3423s-4.64 10.3424-10.45 10.3424c-5.8 0-10.45-4.6658-10.45-10.3424zm-5.57 0c0-8.7885 7.17-15.913 16.02-15.913s16.02 7.1245 16.02 15.913c0 8.7886-7.17 15.9131-16.02 15.9131s-16.02-7.1245-16.02-15.9131z" fill="#ee4332" fill-rule="evenodd"/><path d="m838.793 305.653v-3.825c0-1.023.873-1.867 1.902-1.867h8.168c1.06 0 1.902.844 1.902 1.867v3.825z" fill="#666"/><path d="m838.261 309.809h16.243c.717 0 1.403-.361 1.777-.993l6.11-10.027h19.548l6.079 9.997c.405.662 1.091 1.023 1.808 1.023h16.243c1.777 0 3.211 1.386 3.211 3.102v39.356c0 1.716-1.434 3.101-3.211 3.101h-67.839c-1.777 0-3.211-1.385-3.211-3.101v-39.386c.031-1.686 1.465-3.072 3.242-3.072zm33.888 34.951c7.919 0 14.145-6.497 14.145-14.145 0-7.649-6.226-14.115-14.145-14.145-7.918 0-14.145 6.496-14.145 14.145.032 7.648 6.227 14.145 14.145 14.145z" fill="#09f"/><path d="m930.409 180.57v4.96h42.813v-4.96zm9.731-14.981h1.07 21.244 1.07c1.622 0 2.66 1.085 2.66 2.694v1.084 6.407h-14.336-14.336v-6.407-1.084c-.032-1.609 1.006-2.694 2.628-2.694zm-12.358-43.167 13.363-13.699c.584-.591 1.946-1.182 2.757-1.182h20.303c4.865 0 9.276 3.909 9.276 8.607v25.493c0 2.135-1.719 3.909-3.859 3.909-2.109 0-3.86-1.741-3.86-3.909v-3.056c0-.985-.778-1.806-1.751-1.806-.941 0-1.719.755-1.752 1.675v6.307c0 2.169-1.719 3.91-3.859 3.91-2.109 0-3.86-1.741-3.86-3.877v-6.241c0-.986-.778-1.807-1.751-1.807s-1.784.788-1.784 1.807v17.575c0 2.168-1.719 3.91-3.86 3.91-2.108 0-3.827-1.742-3.859-3.877 0 0 0 0 0-.033v-31.669c0-2.07-1.298-3.022-2.465-3.022-.649 0-1.136.164-1.654.69-1.882 1.905-.455.492-2.271 2.299-3.211 3.253-9.373 1.479-9.373-1.15 0-.229.032-.624.259-.854z" fill="#09f"/><path d="m873.916 512.408v-126.385l28.505 28.849h105.869v97.536z" fill="#242424"/><path clip-rule="evenodd" d="m1011.08 515.193h-139.949v-135.951l32.454 32.845h107.495zm-5.57-5.57v-91.965h-104.253l-24.555-24.852v116.817z" fill="#666" fill-rule="evenodd"/><path d="m916.382 440.391h-25.068v55.707h25.068z" fill="#ee4332"/><path d="m987.408 473.815h-25.068v22.283h25.068z" fill="#ee4332"/><path d="m952.591 455.71h-25.068v40.388h25.068z" fill="#666"/><path d="m1024.21 145.715c0 13.764 11.08 24.921 24.75 24.921s24.75-11.157 24.75-24.921c0-13.763-11.08-24.921-24.75-24.921s-24.75 11.158-24.75 24.921z" fill="#ee4332"/><path d="m742.623 515.14c13.671 0 24.753-11.083 24.753-24.754s-11.082-24.753-24.753-24.753c-13.672 0-24.754 11.082-24.754 24.753s11.082 24.754 24.754 24.754z" fill="#ee4332"/><path d="m545.047 63.6295c5.859 0 10.609-4.7497 10.609-10.6087s-4.75-10.6087-10.609-10.6087-10.608 4.7497-10.608 10.6087 4.749 10.6087 10.608 10.6087z" fill="#ffbe00"/><path d="m389.452 63.629c5.859 0 10.609-4.7497 10.609-10.6087s-4.75-10.6087-10.609-10.6087-10.608 4.7497-10.608 10.6087 4.749 10.6087 10.608 10.6087z" fill="#666"/><path d="m311.656 63.629c5.859 0 10.608-4.7497 10.608-10.6087s-4.749-10.6087-10.608-10.6087-10.609 4.7497-10.609 10.6087 4.75 10.6087 10.609 10.6087z" fill="#2cbe60"/><path d="m545.047 141.426c5.859 0 10.609-4.749 10.609-10.608s-4.75-10.609-10.609-10.609-10.608 4.75-10.608 10.609 4.749 10.608 10.608 10.608z" fill="#ee4332"/><path d="m545.047 219.223c5.859 0 10.609-4.749 10.609-10.608s-4.75-10.609-10.609-10.609-10.608 4.75-10.608 10.609 4.749 10.608 10.608 10.608z" fill="#666"/><path d="m959.022 60.5167c5.859 0 10.608-4.7497 10.608-10.6087s-4.749-10.6087-10.608-10.6087-10.609 4.7497-10.609 10.6087 4.75 10.6087 10.609 10.6087z" fill="#ee4332"/><path d="m150.757 468.528c6.835 0 12.376-5.542 12.376-12.377 0-6.836-5.541-12.377-12.376-12.377-6.836 0-12.377 5.541-12.377 12.377 0 6.835 5.541 12.377 12.377 12.377z" fill="#09f"/><path d="m467.251 297.021c5.859 0 10.609-4.75 10.609-10.609s-4.75-10.609-10.609-10.609-10.609 4.75-10.609 10.609 4.75 10.609 10.609 10.609z" fill="#09f"/><path d="m885.21 60.5167c5.859 0 10.609-4.7497 10.609-10.6087s-4.75-10.6087-10.609-10.6087-10.609 4.7497-10.609 10.6087 4.75 10.6087 10.609 10.6087z" fill="#ffbe00"/><path d="m1032.83 60.5167c5.86 0 10.61-4.7497 10.61-10.6087s-4.75-10.6087-10.61-10.6087-10.6 4.7497-10.6 10.6087 4.74 10.6087 10.6 10.6087z" fill="#666"/><path clip-rule="evenodd" d="m38.6311 1011.32c16.4273 0 29.8095-13.327 29.8095-29.847s-13.3822-29.848-29.8095-29.848c-16.4274 0-29.80955 13.328-29.80955 29.848s13.38215 29.847 29.80955 29.847zm0 5.64c19.5992 0 35.4875-15.89 35.4875-35.487 0-19.599-15.8883-35.488-35.4875-35.488s-35.48755 15.889-35.48755 35.488c0 19.597 15.88835 35.487 35.48755 35.487z" fill="#09f" fill-rule="evenodd"/><path d="m131.538 882.182c-1.558-.076-2.767-1.356-2.767-2.866v-1.766c0-1.971-1.692-3.583-3.761-3.583h-42.9549c-2.0685 0-3.7609 1.612-3.7609 3.583v26.234c0 1.97 1.6924 3.583 3.7609 3.583h42.9549c2.069 0 3.761-1.613 3.761-3.583v-1.638c0-1.869 1.665-3.174 3.6-3.046 1.665.102 2.982-1.331 2.982-2.918v-11.056c0-1.792-1.29-2.841-3.815-2.944zm-7.871 18.735c0 .922-.779 1.664-1.746 1.664h-10.558c-1.101 0-2.068-.615-2.498-1.587l-8.516-19.707c-.4833-1.101.376-2.278 1.612-2.278h19.96c.967 0 1.746.742 1.746 1.663z" fill="#ffbe00"/><path d="m54.6362 971.036h-30.6167l12.0066 13.502v12.939l6.0032-3.375v-9.002z" fill="#09f"/></g></svg>
